Commissioner-BlackWedgeItalic.ufo
<glyph name="dollar" format="2">
  <advance width="588"/>
  <unicode hex="0024"/>
  <outline>
    <contour>
      <point x="262" y="-15" type="curve" smooth="yes"/>
      <point x="445" y="-15"/>
      <point x="526" y="38"/>
      <point x="555" y="179" type="curve" smooth="yes"/>
      <point x="580" y="299"/>
      <point x="540" y="362"/>
      <point x="398" y="413" type="curve" smooth="yes"/>
      <point x="308" y="445"/>
      <point x="278" y="465"/>
      <point x="283" y="486" type="curve" smooth="yes"/>
      <point x="287" y="506"/>
      <point x="317" y="515"/>
      <point x="360" y="515" type="curve"/>
      <point x="377" y="515"/>
      <point x="471" y="485"/>
      <point x="560" y="451" type="curve"/>
      <point x="619" y="644" type="line"/>
      <point x="536" y="667"/>
      <point x="412" y="700"/>
      <point x="347" y="700" type="curve" smooth="yes"/>
      <point x="183" y="700"/>
      <point x="105" y="640"/>
      <point x="78" y="509" type="curve" smooth="yes"/>
      <point x="50" y="373"/>
      <point x="112" y="313"/>
      <point x="218" y="272" type="curve" smooth="yes"/>
      <point x="291" y="244"/>
      <point x="355" y="223"/>
      <point x="349" y="195" type="curve" smooth="yes"/>
      <point x="346" y="178"/>
      <point x="320" y="166"/>
      <point x="268" y="166" type="curve"/>
      <point x="250" y="166"/>
      <point x="146" y="200"/>
      <point x="48" y="238" type="curve"/>
      <point x="-10" y="37" type="line"/>
      <point x="88" y="11"/>
      <point x="210" y="-15"/>
    </contour>
    <contour>
      <point x="127" y="-137" type="curve"/>
      <point x="311" y="-137" type="line"/>
      <point x="335" y="-1"/>
      <point x="362" y="153"/>
      <point x="369" y="192" type="curve"/>
      <point x="429" y="474" type="line"/>
      <point x="439" y="514"/>
      <point x="477" y="666"/>
      <point x="511" y="803" type="curve"/>
      <point x="327" y="803" type="line"/>
      <point x="303" y="666"/>
      <point x="276" y="513"/>
      <point x="269" y="474" type="curve"/>
      <point x="209" y="192" type="line"/>
      <point x="200" y="155"/>
      <point x="161" y="0"/>
    </contour>
  </outline>
</glyph>
<glyph name="parenleft" format="2">
  <advance width="441"/>
  <unicode hex="0028"/>
  <outline>
    <contour>
      <point x="190" y="-146" type="curve"/>
      <point x="364" y="-85" type="line"/>
      <point x="293" y="67"/>
      <point x="242" y="181"/>
      <point x="272" y="329" type="curve" smooth="yes"/>
      <point x="302" y="478"/>
      <point x="408" y="583"/>
      <point x="536" y="727" type="curve"/>
      <point x="367" y="792" type="line"/>
      <point x="257" y="688"/>
      <point x="94" y="565"/>
      <point x="52" y="356" type="curve" smooth="yes"/>
      <point x="10" y="147"/>
      <point x="126" y="-26"/>
    </contour>
  </outline>
</glyph>
<glyph name="asterisk" format="2">
  <advance width="519"/>
  <unicode hex="002A"/>
  <outline>
    <contour>
      <point x="440" y="305" type="curve"/>
      <point x="538" y="413" type="line"/>
      <point x="473" y="457"/>
      <point x="406" y="500"/>
      <point x="341" y="544" type="curve"/>
      <point x="290" y="604"/>
      <point x="240" y="666"/>
      <point x="190" y="726" type="curve"/>
      <point x="92" y="617" type="line"/>
      <point x="157" y="572"/>
      <point x="222" y="530"/>
      <point x="289" y="485" type="curve"/>
      <point x="339" y="425"/>
      <point x="390" y="364"/>
    </contour>
    <contour>
      <point x="115" y="373" type="line"/>
      <point x="186" y="408"/>
      <point x="256" y="443"/>
      <point x="327" y="478" type="curve"/>
      <point x="404" y="491"/>
      <point x="482" y="505"/>
      <point x="559" y="518" type="curve"/>
      <point x="514" y="658" type="line"/>
      <point x="444" y="623"/>
      <point x="374" y="588"/>
      <point x="303" y="553" type="curve"/>
      <point x="226" y="539"/>
      <point x="147" y="526"/>
      <point x="70" y="513" type="curve"/>
    </contour>
    <contour>
      <point x="194" y="302" type="curve"/>
      <point x="338" y="271" type="line"/>
      <point x="344" y="350"/>
      <point x="348" y="428"/>
      <point x="354" y="507" type="curve"/>
      <point x="381" y="581"/>
      <point x="408" y="655"/>
      <point x="435" y="729" type="curve"/>
      <point x="292" y="759" type="line"/>
      <point x="286" y="681"/>
      <point x="282" y="602"/>
      <point x="276" y="523" type="curve"/>
      <point x="249" y="449"/>
      <point x="221" y="376"/>
    </contour>
  </outline>
</glyph>
<glyph name="plus" format="2">
  <advance width="610"/>
  <unicode hex="002B"/>
  <outline>
    <contour>
      <point x="154" y="44" type="curve"/>
      <point x="368" y="44" type="line"/>
      <point x="381" y="119"/>
      <point x="394" y="195"/>
      <point x="404" y="252" type="curve"/>
      <point x="428" y="366" type="line"/>
      <point x="443" y="425"/>
      <point x="462" y="499"/>
      <point x="481" y="574" type="curve"/>
      <point x="267" y="574" type="line"/>
      <point x="254" y="501"/>
      <point x="240" y="422"/>
      <point x="230" y="366" type="curve"/>
      <point x="206" y="252" type="line"/>
      <point x="192" y="195"/>
      <point x="173" y="119"/>
    </contour>
    <contour>
      <point x="30" y="206" type="line"/>
      <point x="106" y="209"/>
      <point x="183" y="212"/>
      <point x="240" y="214" type="curve"/>
      <point x="354" y="214" type="line"/>
      <point x="411" y="212"/>
      <point x="486" y="209"/>
      <point x="560" y="206" type="curve"/>
      <point x="604" y="412" type="line"/>
      <point x="529" y="409"/>
      <point x="452" y="406"/>
      <point x="395" y="404" type="curve"/>
      <point x="281" y="404" type="line"/>
      <point x="224" y="406"/>
      <point x="149" y="409"/>
      <point x="74" y="412" type="curve"/>
    </contour>
  </outline>
</glyph>
<glyph name="comma" format="2">
  <advance width="275"/>
  <unicode hex="002C"/>
  <outline>
    <contour>
      <point x="-76" y="-157" type="curve"/>
      <point x="35" y="-155" type="line"/>
      <point x="79" y="-113"/>
      <point x="200" y="12"/>
      <point x="212" y="75" type="curve" smooth="yes"/>
      <point x="225" y="145"/>
      <point x="209" y="203"/>
      <point x="137" y="220" type="curve"/>
      <point x="21" y="211" type="line"/>
      <point x="17" y="156"/>
      <point x="12" y="101"/>
      <point x="7" y="52" type="curve"/>
      <point x="-16" y="-11"/>
      <point x="-52" y="-99"/>
    </contour>
  </outline>
</glyph>
<glyph name="hyphen" format="2">
  <advance width="430"/>
  <unicode hex="002D"/>
  <outline>
    <contour>
      <point x="29" y="201" type="line"/>
      <point x="92" y="204"/>
      <point x="157" y="207"/>
      <point x="205" y="209" type="curve"/>
      <point x="253" y="207"/>
      <point x="316" y="204"/>
      <point x="379" y="201" type="curve"/>
      <point x="422" y="407" type="line"/>
      <point x="358" y="404"/>
      <point x="294" y="401"/>
      <point x="245" y="399" type="curve"/>
      <point x="198" y="401"/>
      <point x="134" y="404"/>
      <point x="72" y="407" type="curve"/>
    </contour>
  </outline>
</glyph>
<glyph name="one" format="2">
  <advance width="490"/>
  <unicode hex="0031"/>
  <outline>
    <contour>
      <point x="92" y="367" type="line"/>
      <point x="178" y="405"/>
      <point x="264" y="443"/>
      <point x="352" y="482" type="curve"/>
      <point x="404" y="696" type="line"/>
      <point x="293" y="656"/>
      <point x="185" y="617"/>
      <point x="75" y="577" type="curve"/>
    </contour>
    <contour>
      <point x="119" y="0" type="curve"/>
      <point x="385" y="0" type="line"/>
      <point x="394" y="69"/>
      <point x="401" y="129"/>
      <point x="412" y="213" type="curve"/>
      <point x="462" y="449" type="line"/>
      <point x="484" y="528"/>
      <point x="507" y="607"/>
      <point x="530" y="690" type="curve"/>
      <point x="404" y="696" type="line"/>
      <point x="253" y="597" type="line"/>
      <point x="242" y="531"/>
      <point x="232" y="466"/>
      <point x="221" y="400" type="curve"/>
      <point x="182" y="213" type="line"/>
      <point x="157" y="129"/>
      <point x="140" y="69"/>
    </contour>
  </outline>
</glyph>
<glyph name="two" format="2">
  <advance width="585"/>
  <unicode hex="0032"/>
  <outline>
    <contour>
      <point x="-15" y="0" type="line"/>
      <point x="498" y="0" type="line"/>
      <point x="544" y="216" type="line"/>
      <point x="484" y="209"/>
      <point x="426" y="202"/>
      <point x="362" y="194" type="curve"/>
      <point x="254" y="194" type="line"/>
      <point x="276" y="146" type="line"/>
      <point x="373" y="205" type="line"/>
      <point x="512" y="289"/>
      <point x="572" y="358"/>
      <point x="593" y="457" type="curve" smooth="yes"/>
      <point x="624" y="602"/>
      <point x="532" y="706"/>
      <point x="352" y="706" type="curve" smooth="yes"/>
      <point x="306" y="706"/>
      <point x="197" y="681"/>
      <point x="119" y="663" type="curve"/>
      <point x="92" y="435" type="line"/>
      <point x="158" y="465"/>
      <point x="279" y="516"/>
      <point x="292" y="516" type="curve"/>
      <point x="338" y="513"/>
      <point x="363" y="490"/>
      <point x="354" y="450" type="curve" smooth="yes"/>
      <point x="339" y="381"/>
      <point x="252" y="317"/>
      <point x="126" y="228" type="curve"/>
      <point x="90" y="207"/>
      <point x="56" y="187"/>
      <point x="20" y="166" type="curve"/>
    </contour>
  </outline>
</glyph>
<glyph name="four" format="2">
  <advance width="629"/>
  <unicode hex="0034"/>
  <outline>
    <contour>
      <point x="234" y="0" type="curve"/>
      <point x="500" y="0" type="line"/>
      <point x="509" y="69"/>
      <point x="516" y="128"/>
      <point x="527" y="213" type="curve"/>
      <point x="577" y="449" type="line"/>
      <point x="599" y="527"/>
      <point x="622" y="607"/>
      <point x="645" y="690" type="curve"/>
      <point x="376" y="690" type="line"/>
      <point x="346" y="651"/>
      <point x="316" y="613"/>
      <point x="287" y="575" type="curve"/>
      <point x="187" y="463" type="line"/>
      <point x="139" y="413"/>
      <point x="73" y="345"/>
      <point x="28" y="298" type="curve"/>
      <point x="-7" y="130" type="line"/>
      <point x="355" y="130" type="line"/>
      <point x="420" y="126"/>
      <point x="515" y="121"/>
      <point x="574" y="118" type="curve"/>
      <point x="620" y="336" type="line"/>
      <point x="559" y="333"/>
      <point x="462" y="328"/>
      <point x="395" y="324" type="curve"/>
      <point x="373" y="304" type="line"/>
      <point x="207" y="304" type="line"/>
      <point x="225" y="291" type="line"/>
      <point x="256" y="329"/>
      <point x="288" y="368"/>
      <point x="319" y="406" type="curve"/>
      <point x="446" y="547" type="line"/>
      <point x="485" y="585"/>
      <point x="521" y="621"/>
      <point x="561" y="660" type="curve"/>
      <point x="383" y="597" type="line"/>
      <point x="374" y="531"/>
      <point x="365" y="466"/>
      <point x="356" y="400" type="curve"/>
      <point x="323" y="241" type="line"/>
      <point x="297" y="213" type="line"/>
      <point x="272" y="129"/>
      <point x="255" y="69"/>
    </contour>
  </outline>
</glyph>
<glyph name="seven" format="2">
  <advance width="573"/>
  <unicode hex="0037"/>
  <outline>
    <contour>
      <point x="10" y="0" type="curve"/>
      <point x="302" y="0" type="line"/>
      <point x="338" y="71"/>
      <point x="371" y="140"/>
      <point x="407" y="211" type="curve"/>
      <point x="481" y="331" type="line"/>
      <point x="523" y="395"/>
      <point x="562" y="454"/>
      <point x="604" y="518" type="curve"/>
      <point x="640" y="690" type="line"/>
      <point x="117" y="690" type="line"/>
      <point x="71" y="471" type="line"/>
      <point x="142" y="479"/>
      <point x="214" y="488"/>
      <point x="285" y="496" type="curve"/>
      <point x="402" y="496" type="line"/>
      <point x="341" y="539" type="line"/>
      <point x="319" y="496"/>
      <point x="296" y="452"/>
      <point x="274" y="409" type="curve"/>
      <point x="163" y="233" type="line"/>
      <point x="113" y="156"/>
      <point x="61" y="78"/>
    </contour>
  </outline>
</glyph>
<glyph name="less" format="2">
  <advance width="590"/>
  <unicode hex="003C"/>
  <outline>
    <contour>
      <point x="502" y="23" type="curve"/>
      <point x="547" y="233" type="line"/>
      <point x="502" y="245"/>
      <point x="458" y="257"/>
      <point x="413" y="269" type="curve"/>
      <point x="344" y="293" type="line"/>
      <point x="347" y="309" type="line"/>
      <point x="425" y="331" type="line"/>
      <point x="475" y="342"/>
      <point x="525" y="354"/>
      <point x="575" y="365" type="curve"/>
      <point x="623" y="595" type="line"/>
      <point x="540" y="564"/>
      <point x="465" y="536"/>
      <point x="398" y="511" type="curve"/>
      <point x="297" y="478" type="line"/>
      <point x="231" y="459"/>
      <point x="155" y="437"/>
      <point x="75" y="414" type="curve"/>
      <point x="30" y="204" type="line"/>
      <point x="100" y="181"/>
      <point x="167" y="159"/>
      <point x="225" y="140" type="curve"/>
      <point x="312" y="107" type="line"/>
      <point x="368" y="82"/>
      <point x="431" y="54"/>
    </contour>
  </outline>
</glyph>
<glyph name="at" format="2">
  <advance width="902"/>
  <unicode hex="0040"/>
  <outline>
    <contour>
      <point x="489" y="-157" type="curve" smooth="yes"/>
      <point x="555" y="-157"/>
      <point x="679" y="-119"/>
      <point x="773" y="-95" type="curve"/>
      <point x="773" y="45" type="line"/>
      <point x="650" y="-2"/>
      <point x="524" y="-34"/>
      <point x="489" y="-37" type="curve"/>
      <point x="238" y="-32"/>
      <point x="124" y="119"/>
      <point x="173" y="338" type="curve" smooth="yes"/>
      <point x="205" y="482"/>
      <point x="300" y="592"/>
      <point x="484" y="597" type="curve"/>
      <point x="675" y="592"/>
      <point x="783" y="484"/>
      <point x="748" y="287" type="curve" smooth="yes"/>
      <point x="745" y="270"/>
      <point x="695" y="200"/>
      <point x="665" y="186" type="curve"/>
      <point x="632" y="190"/>
      <point x="623" y="212"/>
      <point x="641" y="297" type="curve"/>
      <point x="649" y="334" type="line"/>
      <point x="667" y="388"/>
      <point x="685" y="441"/>
      <point x="703" y="490" type="curve"/>
      <point x="533" y="482" type="line"/>
      <point x="515" y="436" type="line"/>
      <point x="502" y="436" type="line"/>
      <point x="468" y="473"/>
      <point x="429" y="495"/>
      <point x="405" y="495" type="curve" smooth="yes"/>
      <point x="313" y="495"/>
      <point x="252" y="409"/>
      <point x="233" y="314" type="curve" smooth="yes"/>
      <point x="207" y="183"/>
      <point x="265" y="67"/>
      <point x="372" y="67" type="curve" smooth="yes"/>
      <point x="392" y="67"/>
      <point x="433" y="92"/>
      <point x="481" y="125" type="curve"/>
      <point x="493" y="125" type="line"/>
      <point x="518" y="89"/>
      <point x="582" y="59"/>
      <point x="672" y="59" type="curve" smooth="yes"/>
      <point x="718" y="59"/>
      <point x="859" y="175"/>
      <point x="876" y="261" type="curve" smooth="yes"/>
      <point x="926" y="515"/>
      <point x="757" y="717"/>
      <point x="486" y="717" type="curve" smooth="yes"/>
      <point x="288" y="717"/>
      <point x="98" y="610"/>
      <point x="46" y="367" type="curve" smooth="yes"/>
      <point x="-15" y="83"/>
      <point x="153" y="-157"/>
    </contour>
    <contour>
      <point x="427" y="218" type="curve"/>
      <point x="406" y="220"/>
      <point x="395" y="252"/>
      <point x="401" y="282" type="curve" smooth="yes"/>
      <point x="408" y="316"/>
      <point x="427" y="338"/>
      <point x="452" y="341" type="curve"/>
      <point x="464" y="338"/>
      <point x="471" y="334"/>
      <point x="476" y="328" type="curve"/>
      <point x="457" y="239" type="line"/>
      <point x="448" y="226"/>
      <point x="440" y="223"/>
    </contour>
  </outline>
</glyph>
<glyph name="C" format="2">
  <advance width="681"/>
  <unicode hex="0043"/>
  <anchor x="340" y="0" name="bottom"/>
  <anchor x="490" y="713" name="top"/>
  <outline>
    <contour>
      <point x="386" y="-16" type="curve" smooth="yes"/>
      <point x="420" y="-16"/>
      <point x="538" y="5"/>
      <point x="592" y="20" type="curve"/>
      <point x="630" y="248" type="line"/>
      <point x="563" y="220"/>
      <point x="456" y="182"/>
      <point x="431" y="182" type="curve"/>
      <point x="318" y="186"/>
      <point x="284" y="280"/>
      <point x="303" y="371" type="curve" smooth="yes"/>
      <point x="327" y="487"/>
      <point x="402" y="520"/>
      <point x="455" y="524" type="curve"/>
      <point x="473" y="524"/>
      <point x="577" y="493"/>
      <point x="670" y="456" type="curve"/>
      <point x="735" y="681" type="line"/>
      <point x="645" y="706"/>
      <point x="521" y="729"/>
      <point x="480" y="729" type="curve" smooth="yes"/>
      <point x="233" y="729"/>
      <point x="99" y="616"/>
      <point x="55" y="403" type="curve" smooth="yes"/>
      <point x="7" y="174"/>
      <point x="128" y="-16"/>
    </contour>
  </outline>
</glyph>
<glyph name="D" format="2">
  <advance width="735"/>
  <unicode hex="0044"/>
  <anchor x="302" y="0" name="bottom"/>
  <anchor x="390.531" y="357" name="center"/>
  <anchor x="452" y="713" name="top"/>
  <outline>
    <contour>
      <point x="-21" y="0" type="curve"/>
      <point x="66" y="0"/>
      <point x="166" y="-9"/>
      <point x="287" y="-9" type="curve"/>
      <point x="576" y="-9"/>
      <point x="687" y="130"/>
      <point x="728" y="331" type="curve" smooth="yes"/>
      <point x="771" y="543"/>
      <point x="664" y="720"/>
      <point x="444" y="720" type="curve"/>
      <point x="328" y="720"/>
      <point x="206" y="713"/>
      <point x="129" y="713" type="curve"/>
      <point x="119" y="636"/>
      <point x="111" y="573"/>
      <point x="98" y="474" type="curve"/>
      <point x="46" y="229" type="line"/>
      <point x="19" y="137"/>
      <point x="1" y="74"/>
    </contour>
    <contour>
      <point x="289" y="193" type="line"/>
      <point x="293" y="219"/>
      <point x="299" y="252"/>
      <point x="306" y="295" type="curve"/>
      <point x="331" y="413" type="line"/>
      <point x="343" y="459"/>
      <point x="351" y="489"/>
      <point x="360" y="520" type="curve"/>
      <point x="386" y="520" type="line"/>
      <point x="474" y="514"/>
      <point x="496" y="445"/>
      <point x="476" y="351" type="curve" smooth="yes"/>
      <point x="457" y="261"/>
      <point x="422" y="200"/>
      <point x="310" y="193" type="curve"/>
    </contour>
  </outline>
</glyph>
<glyph name="L" format="2">
  <advance width="579"/>
  <unicode hex="004C"/>
  <anchor x="245" y="0" name="bottom"/>
  <anchor x="478" y="360" name="center"/>
  <anchor x="354" y="713" name="top"/>
  <anchor x="379" y="502" name="topright"/>
  <outline>
    <contour>
      <point x="-21" y="0" type="curve"/>
      <point x="263" y="0" type="line"/>
      <point x="272" y="40" type="line"/>
      <point x="274" y="114"/>
      <point x="282" y="178"/>
      <point x="301" y="269" type="curve"/>
      <point x="344" y="474" type="line"/>
      <point x="372" y="572"/>
      <point x="391" y="636"/>
      <point x="413" y="713" type="curve"/>
      <point x="129" y="713" type="line"/>
      <point x="119" y="636"/>
      <point x="111" y="573"/>
      <point x="98" y="474" type="curve"/>
      <point x="46" y="229" type="line"/>
      <point x="19" y="137"/>
      <point x="1" y="74"/>
    </contour>
    <contour>
      <point x="212" y="0" type="line"/>
      <point x="502" y="0" type="line"/>
      <point x="552" y="237" type="line"/>
      <point x="487" y="229"/>
      <point x="433" y="223"/>
      <point x="341" y="212" type="curve"/>
      <point x="257" y="212" type="line"/>
    </contour>
  </outline>
</glyph>
<glyph name="V" format="2">
  <advance width="740"/>
  <unicode hex="0056"/>
  <anchor x="318" y="0" name="bottom"/>
  <anchor x="468" y="713" name="top"/>
  <outline>
    <contour>
      <point x="136" y="0" type="curve"/>
      <point x="495" y="0" type="line"/>
      <point x="523" y="69"/>
      <point x="558" y="155"/>
      <point x="587" y="226" type="curve"/>
      <point x="694" y="450" type="line"/>
      <point x="738" y="527"/>
      <point x="794" y="625"/>
      <point x="844" y="713" type="curve"/>
      <point x="519" y="713" type="line"/>
      <point x="497" y="635"/>
      <point x="473" y="547"/>
      <point x="451" y="468" type="curve"/>
      <point x="371" y="247" type="line"/>
      <point x="355" y="247" type="line"/>
      <point x="364" y="467" type="line"/>
      <point x="371" y="544"/>
      <point x="378" y="635"/>
      <point x="385" y="713" type="curve"/>
      <point x="91" y="713" type="line"/>
      <point x="104" y="627"/>
      <point x="119" y="527"/>
      <point x="130" y="450" type="curve"/>
      <point x="141" y="226" type="line"/>
      <point x="140" y="158"/>
      <point x="138" y="73"/>
    </contour>
  </outline>
</glyph>
<glyph name="W" format="2">
  <advance width="1071"/>
  <unicode hex="0057"/>
  <anchor x="479" y="0" name="bottom"/>
  <anchor x="629" y="713" name="top"/>
  <outline>
    <contour>
      <point x="118" y="0" type="curve"/>
      <point x="428" y="0" type="line"/>
      <point x="444" y="60"/>
      <point x="463" y="132"/>
      <point x="478" y="188" type="curve"/>
      <point x="539" y="358" type="line"/>
      <point x="555" y="358" type="line"/>
      <point x="547" y="188" type="line"/>
      <point x="540" y="128"/>
      <point x="532" y="60"/>
      <point x="525" y="0" type="curve"/>
      <point x="847" y="0" type="line"/>
      <point x="874" y="67"/>
      <point x="908" y="152"/>
      <point x="937" y="225" type="curve"/>
      <point x="1039" y="450" type="line"/>
      <point x="1079" y="525"/>
      <point x="1133" y="627"/>
      <point x="1179" y="713" type="curve"/>
      <point x="859" y="713" type="line"/>
      <point x="842" y="644"/>
      <point x="823" y="564"/>
      <point x="805" y="492" type="curve"/>
      <point x="742" y="292" type="line"/>
      <point x="726" y="292" type="line"/>
      <point x="740" y="490" type="line"/>
      <point x="749" y="561"/>
      <point x="760" y="643"/>
      <point x="769" y="713" type="curve"/>
      <point x="489" y="713" type="line"/>
      <point x="469" y="642"/>
      <point x="446" y="560"/>
      <point x="427" y="492" type="curve"/>
      <point x="359" y="292" type="line"/>
      <point x="343" y="292" type="line"/>
      <point x="363" y="490" type="line"/>
      <point x="375" y="561"/>
      <point x="389" y="643"/>
      <point x="401" y="713" type="curve"/>
      <point x="88" y="713" type="line"/>
      <point x="98" y="628"/>
      <point x="111" y="528"/>
      <point x="120" y="450" type="curve"/>
      <point x="126" y="225" type="line"/>
      <point x="124" y="154"/>
      <point x="121" y="72"/>
    </contour>
  </outline>
</glyph>
<glyph name="backslash" format="2">
  <advance width="485"/>
  <unicode hex="005C"/>
  <outline>
    <contour>
      <point x="208" y="0" type="curve"/>
      <point x="443" y="0" type="line"/>
      <point x="424" y="77"/>
      <point x="408" y="139"/>
      <point x="386" y="228" type="curve"/>
      <point x="346" y="476" type="line"/>
      <point x="338" y="570"/>
      <point x="333" y="635"/>
      <point x="326" y="713" type="curve"/>
      <point x="93" y="713" type="line"/>
      <point x="112" y="632"/>
      <point x="127" y="568"/>
      <point x="149" y="474" type="curve"/>
      <point x="188" y="228" type="line"/>
      <point x="196" y="136"/>
      <point x="202" y="74"/>
    </contour>
  </outline>
</glyph>
<glyph name="b" format="2">
  <advance width="598"/>
  <unicode hex="0062"/>
  <outline>
    <contour>
      <point x="353" y="-16" type="curve" smooth="yes"/>
      <point x="469" y="-16"/>
      <point x="545" y="91"/>
      <point x="575" y="232" type="curve" smooth="yes"/>
      <point x="607" y="384"/>
      <point x="565" y="518"/>
      <point x="435" y="518" type="curve" smooth="yes"/>
      <point x="407" y="518"/>
      <point x="365" y="494"/>
      <point x="322" y="458" type="curve"/>
      <point x="306" y="458" type="line"/>
      <point x="313" y="493" type="line"/>
      <point x="342" y="589"/>
      <point x="367" y="675"/>
      <point x="391" y="752" type="curve"/>
      <point x="106" y="732" type="line"/>
      <point x="102" y="649"/>
      <point x="97" y="572"/>
      <point x="91" y="493" type="curve"/>
      <point x="32" y="213" type="line"/>
      <point x="7" y="129"/>
      <point x="-10" y="69"/>
      <point x="-31" y="0" type="curve"/>
      <point x="159" y="0" type="line"/>
      <point x="198" y="57" type="line"/>
      <point x="211" y="57" type="line"/>
      <point x="262" y="12"/>
      <point x="315" y="-16"/>
    </contour>
    <contour>
      <point x="284" y="172" type="curve"/>
      <point x="269" y="175"/>
      <point x="257" y="182"/>
      <point x="250" y="190" type="curve"/>
      <point x="274" y="305" type="line"/>
      <point x="285" y="320"/>
      <point x="300" y="329"/>
      <point x="316" y="333" type="curve"/>
      <point x="347" y="330"/>
      <point x="359" y="285"/>
      <point x="351" y="248" type="curve" smooth="yes"/>
      <point x="342" y="205"/>
      <point x="318" y="176"/>
    </contour>
  </outline>
</glyph>
<glyph name="c" format="2">
  <advance width="474"/>
  <unicode hex="0063"/>
  <anchor x="221" y="0" name="bottom"/>
  <anchor x="327" y="502" name="top"/>
  <outline>
    <contour>
      <point x="290" y="-13" type="curve" smooth="yes"/>
      <point x="317" y="-13"/>
      <point x="374" y="-2"/>
      <point x="401" y="6" type="curve"/>
      <point x="432" y="194" type="line"/>
      <point x="402" y="183"/>
      <point x="347" y="166"/>
      <point x="336" y="166" type="curve"/>
      <point x="274" y="168"/>
      <point x="232" y="201"/>
      <point x="247" y="266" type="curve" smooth="yes"/>
      <point x="258" y="310"/>
      <point x="286" y="328"/>
      <point x="327" y="333" type="curve"/>
      <point x="337" y="333"/>
      <point x="397" y="315"/>
      <point x="450" y="294" type="curve"/>
      <point x="503" y="482" type="line"/>
      <point x="440" y="501"/>
      <point x="354" y="517"/>
      <point x="326" y="517" type="curve" smooth="yes"/>
      <point x="154" y="517"/>
      <point x="54" y="425"/>
      <point x="24" y="284" type="curve" smooth="yes"/>
      <point x="-15" y="100"/>
      <point x="97" y="-13"/>
    </contour>
  </outline>
</glyph>
<glyph name="d" format="2">
  <advance width="594"/>
  <unicode hex="0064"/>
  <anchor x="269" y="0" name="bottom"/>
  <anchor x="296" y="251" name="center"/>
  <anchor x="423" y="733" name="top"/>
  <anchor x="630" y="502" name="topright"/>
  <outline>
    <contour>
      <point x="164" y="-16" type="curve" smooth="yes"/>
      <point x="199" y="-16"/>
      <point x="251" y="11"/>
      <point x="305" y="52" type="curve"/>
      <point x="318" y="52" type="line"/>
      <point x="319" y="0" type="line"/>
      <point x="523" y="0" type="line"/>
      <point x="532" y="69"/>
      <point x="539" y="129"/>
      <point x="550" y="213" type="curve"/>
      <point x="609" y="493" type="line"/>
      <point x="638" y="589"/>
      <point x="663" y="675"/>
      <point x="687" y="752" type="curve"/>
      <point x="402" y="732" type="line"/>
      <point x="398" y="649"/>
      <point x="393" y="572"/>
      <point x="387" y="493" type="curve"/>
      <point x="380" y="458" type="line"/>
      <point x="364" y="458" type="line"/>
      <point x="322" y="495"/>
      <point x="277" y="518"/>
      <point x="246" y="518" type="curve" smooth="yes"/>
      <point x="130" y="518"/>
      <point x="54" y="411"/>
      <point x="24" y="270" type="curve" smooth="yes"/>
      <point x="-8" y="118"/>
      <point x="34" y="-16"/>
    </contour>
    <contour>
      <point x="283" y="169" type="curve"/>
      <point x="252" y="172"/>
      <point x="240" y="217"/>
      <point x="248" y="254" type="curve" smooth="yes"/>
      <point x="257" y="297"/>
      <point x="281" y="326"/>
      <point x="315" y="330" type="curve"/>
      <point x="330" y="327"/>
      <point x="342" y="320"/>
      <point x="349" y="312" type="curve"/>
      <point x="325" y="197" type="line"/>
      <point x="314" y="182"/>
      <point x="299" y="173"/>
    </contour>
  </outline>
</glyph>
<glyph name="g" format="2">
  <advance width="562"/>
  <unicode hex="0067"/>
  <anchor x="233" y="-192" name="bottom"/>
  <anchor x="306" y="502" name="top"/>
  <outline>
    <contour>
      <point x="190" y="-206" type="curve" smooth="yes"/>
      <point x="321" y="-206"/>
      <point x="458" y="-165"/>
      <point x="488" y="-26" type="curve" smooth="yes"/>
      <point x="513" y="91"/>
      <point x="427" y="146"/>
      <point x="322" y="146" type="curve" smooth="yes"/>
      <point x="282" y="146" type="line" smooth="yes"/>
      <point x="262" y="146"/>
      <point x="245" y="151"/>
      <point x="248" y="166" type="curve" smooth="yes"/>
      <point x="251" y="179"/>
      <point x="270" y="182"/>
      <point x="305" y="187" type="curve" smooth="yes"/>
      <point x="386" y="199"/>
      <point x="478" y="230"/>
      <point x="498" y="317" type="curve" smooth="yes"/>
      <point x="509" y="365"/>
      <point x="500" y="403"/>
      <point x="471" y="439" type="curve"/>
      <point x="413" y="374" type="line"/>
      <point x="463" y="362"/>
      <point x="510" y="350"/>
      <point x="565" y="335" type="curve"/>
      <point x="601" y="506" type="line"/>
      <point x="454" y="506" type="line" smooth="yes"/>
      <point x="382" y="506"/>
      <point x="353" y="518"/>
      <point x="258" y="518" type="curve" smooth="yes"/>
      <point x="122" y="518"/>
      <point x="59" y="449"/>
      <point x="43" y="370" type="curve" smooth="yes"/>
      <point x="30" y="307"/>
      <point x="67" y="261"/>
      <point x="132" y="194" type="curve"/>
      <point x="132" y="181" type="line"/>
      <point x="89" y="170"/>
      <point x="42" y="152"/>
      <point x="33" y="105" type="curve" smooth="yes"/>
      <point x="23" y="55"/>
      <point x="57" y="27"/>
      <point x="82" y="17" type="curve"/>
      <point x="82" y="4" type="line"/>
      <point x="20" y="-15"/>
      <point x="-27" y="-43"/>
      <point x="-33" y="-71" type="curve" smooth="yes"/>
      <point x="-56" y="-176"/>
      <point x="74" y="-206"/>
    </contour>
    <contour>
      <point x="215" y="-74" type="curve"/>
      <point x="174" y="-72"/>
      <point x="144" y="-52"/>
      <point x="146" y="-42" type="curve" smooth="yes"/>
      <point x="148" y="-32"/>
      <point x="176" y="-21"/>
      <point x="195" y="-14" type="curve"/>
      <point x="207" y="-14" type="line" smooth="yes"/>
      <point x="244" y="-14"/>
      <point x="286" y="-29"/>
      <point x="280" y="-48" type="curve" smooth="yes"/>
      <point x="277" y="-58"/>
      <point x="249" y="-70"/>
    </contour>
    <contour>
      <point x="256" y="280" type="curve"/>
      <point x="243" y="293"/>
      <point x="231" y="308"/>
      <point x="234" y="321" type="curve" smooth="yes"/>
      <point x="237" y="335"/>
      <point x="254" y="344"/>
      <point x="272" y="346" type="curve"/>
      <point x="303" y="342"/>
      <point x="321" y="327"/>
      <point x="317" y="311" type="curve" smooth="yes"/>
      <point x="312" y="291"/>
      <point x="278" y="281"/>
    </contour>
  </outline>
</glyph>
<glyph name="h" format="2">
  <advance width="598"/>
  <unicode hex="0068"/>
  <guideline x="152" y="743" angle="4.4708"/>
  <anchor x="249" y="0" name="bottom"/>
  <anchor x="335" y="409" name="center"/>
  <anchor x="374" y="733" name="top"/>
  <outline>
    <contour>
      <point x="-31" y="0" type="curve"/>
      <point x="227" y="0" type="line"/>
      <point x="236" y="69"/>
      <point x="242" y="129"/>
      <point x="251" y="200" type="curve"/>
      <point x="270" y="291" type="line"/>
      <point x="282" y="303"/>
      <point x="312" y="318"/>
      <point x="317" y="318" type="curve" smooth="yes"/>
      <point x="341" y="318"/>
      <point x="345" y="289"/>
      <point x="333" y="238" type="curve"/>
      <point x="326" y="200" type="line"/>
      <point x="306" y="129"/>
      <point x="289" y="69"/>
      <point x="269" y="0" type="curve"/>
      <point x="525" y="0" type="line"/>
      <point x="534" y="69"/>
      <point x="540" y="129"/>
      <point x="551" y="213" type="curve"/>
      <point x="559" y="252"/>
      <point x="574" y="297"/>
      <point x="580" y="326" type="curve" smooth="yes"/>
      <point x="604" y="440"/>
      <point x="557" y="518"/>
      <point x="452" y="518" type="curve" smooth="yes"/>
      <point x="423" y="518"/>
      <point x="368" y="487"/>
      <point x="320" y="447" type="curve"/>
      <point x="303" y="447" type="line"/>
      <point x="313" y="493" type="line"/>
      <point x="342" y="589"/>
      <point x="367" y="675"/>
      <point x="391" y="752" type="curve"/>
      <point x="106" y="732" type="line"/>
      <point x="102" y="649"/>
      <point x="97" y="572"/>
      <point x="91" y="493" type="curve"/>
      <point x="32" y="213" type="line"/>
      <point x="7" y="129"/>
      <point x="-10" y="69"/>
    </contour>
  </outline>
</glyph>
<glyph name="l" format="2">
  <advance width="302"/>
  <unicode hex="006C"/>
  <anchor x="98" y="0" name="bottom"/>
  <anchor x="190" y="409" name="center"/>
  <anchor x="244" y="733" name="top"/>
  <anchor x="329" y="502" name="topright"/>
  <outline>
    <contour>
      <point x="-31" y="0" type="curve"/>
      <point x="227" y="0" type="line"/>
      <point x="236" y="69"/>
      <point x="243" y="129"/>
      <point x="254" y="213" type="curve"/>
      <point x="313" y="493" type="line"/>
      <point x="342" y="589"/>
      <point x="367" y="675"/>
      <point x="391" y="752" type="curve"/>
      <point x="106" y="732" type="line"/>
      <point x="102" y="649"/>
      <point x="97" y="572"/>
      <point x="91" y="493" type="curve"/>
      <point x="32" y="213" type="line"/>
      <point x="7" y="129"/>
      <point x="-10" y="69"/>
    </contour>
  </outline>
</glyph>
<glyph name="m" format="2">
  <advance width="891"/>
  <unicode hex="006D"/>
  <anchor x="395" y="0" name="bottom"/>
  <anchor x="501" y="502" name="top"/>
  <outline>
    <contour>
      <point x="-27" y="0" type="curve"/>
      <point x="231" y="0" type="line"/>
      <point x="240" y="69"/>
      <point x="247" y="129"/>
      <point x="255" y="200" type="curve"/>
      <point x="274" y="291" type="line"/>
      <point x="286" y="303"/>
      <point x="314" y="318"/>
      <point x="319" y="318" type="curve" smooth="yes"/>
      <point x="341" y="318"/>
      <point x="345" y="289"/>
      <point x="333" y="238" type="curve"/>
      <point x="326" y="200" type="line"/>
      <point x="306" y="129"/>
      <point x="289" y="69"/>
      <point x="269" y="0" type="curve"/>
      <point x="525" y="0" type="line"/>
      <point x="534" y="69"/>
      <point x="540" y="129"/>
      <point x="551" y="213" type="curve"/>
      <point x="559" y="252"/>
      <point x="574" y="297"/>
      <point x="580" y="326" type="curve" smooth="yes"/>
      <point x="587" y="358"/>
      <point x="588" y="387"/>
      <point x="584" y="412" type="curve"/>
      <point x="575" y="412" type="line"/>
      <point x="569" y="479"/>
      <point x="526" y="518"/>
      <point x="454" y="518" type="curve" smooth="yes"/>
      <point x="418" y="518"/>
      <point x="354" y="484"/>
      <point x="296" y="441" type="curve"/>
      <point x="279" y="441" type="line"/>
      <point x="281" y="512" type="line"/>
      <point x="68" y="502" type="line"/>
      <point x="60" y="419"/>
      <point x="54" y="342"/>
      <point x="47" y="263" type="curve"/>
      <point x="36" y="213" type="line"/>
      <point x="11" y="129"/>
      <point x="-6" y="69"/>
    </contour>
    <contour>
      <point x="562" y="0" type="curve"/>
      <point x="818" y="0" type="line"/>
      <point x="827" y="69"/>
      <point x="833" y="129"/>
      <point x="844" y="213" type="curve"/>
      <point x="852" y="252"/>
      <point x="867" y="297"/>
      <point x="873" y="326" type="curve" smooth="yes"/>
      <point x="897" y="440"/>
      <point x="850" y="518"/>
      <point x="747" y="518" type="curve" smooth="yes"/>
      <point x="711" y="518"/>
      <point x="646" y="484"/>
      <point x="584" y="438" type="curve"/>
      <point x="568" y="438" type="line"/>
      <point x="567" y="291" type="line"/>
      <point x="579" y="303"/>
      <point x="607" y="318"/>
      <point x="612" y="318" type="curve" smooth="yes"/>
      <point x="634" y="318"/>
      <point x="638" y="289"/>
      <point x="626" y="238" type="curve"/>
      <point x="619" y="200" type="line"/>
      <point x="599" y="129"/>
      <point x="582" y="69"/>
    </contour>
  </outline>
</glyph>
<glyph name="q" format="2">
  <advance width="590"/>
  <unicode hex="0071"/>
  <outline>
    <contour>
      <point x="224" y="-198" type="curve"/>
      <point x="482" y="-192" type="line"/>
      <point x="491" y="-123"/>
      <point x="498" y="-63"/>
      <point x="509" y="21" type="curve"/>
      <point x="561" y="263" type="line"/>
      <point x="585" y="345"/>
      <point x="611" y="426"/>
      <point x="639" y="512" type="curve"/>
      <point x="419" y="502" type="line"/>
      <point x="397" y="444" type="line"/>
      <point x="381" y="444" type="line"/>
      <point x="333" y="490"/>
      <point x="281" y="518"/>
      <point x="246" y="518" type="curve" smooth="yes"/>
      <point x="130" y="518"/>
      <point x="54" y="411"/>
      <point x="24" y="270" type="curve" smooth="yes"/>
      <point x="-8" y="118"/>
      <point x="34" y="-16"/>
      <point x="164" y="-16" type="curve" smooth="yes"/>
      <point x="192" y="-16"/>
      <point x="234" y="6"/>
      <point x="276" y="39" type="curve"/>
      <point x="291" y="39" type="line"/>
      <point x="284" y="8" type="line"/>
      <point x="264" y="-63"/>
      <point x="244" y="-129"/>
    </contour>
    <contour>
      <point x="283" y="169" type="curve"/>
      <point x="252" y="172"/>
      <point x="240" y="217"/>
      <point x="248" y="254" type="curve" smooth="yes"/>
      <point x="257" y="297"/>
      <point x="281" y="326"/>
      <point x="315" y="330" type="curve"/>
      <point x="330" y="327"/>
      <point x="342" y="320"/>
      <point x="349" y="312" type="curve"/>
      <point x="325" y="197" type="line"/>
      <point x="314" y="182"/>
      <point x="299" y="173"/>
    </contour>
  </outline>
</glyph>
<glyph name="s" format="2">
  <advance width="478"/>
  <unicode hex="0073"/>
  <anchor x="190" y="0" name="bottom"/>
  <anchor x="296" y="502" name="top"/>
  <outline>
    <contour>
      <point x="212" y="-16" type="curve" smooth="yes"/>
      <point x="356" y="-16"/>
      <point x="423" y="42"/>
      <point x="440" y="121" type="curve" smooth="yes"/>
      <point x="458" y="203"/>
      <point x="428" y="242"/>
      <point x="319" y="286" type="curve" smooth="yes"/>
      <point x="274" y="304"/>
      <point x="267" y="315"/>
      <point x="270" y="331" type="curve" smooth="yes"/>
      <point x="272" y="341"/>
      <point x="285" y="348"/>
      <point x="302" y="350" type="curve"/>
      <point x="313" y="350"/>
      <point x="375" y="325"/>
      <point x="433" y="296" type="curve"/>
      <point x="483" y="475" type="line"/>
      <point x="418" y="492"/>
      <point x="319" y="517"/>
      <point x="268" y="517" type="curve" smooth="yes"/>
      <point x="138" y="517"/>
      <point x="69" y="465"/>
      <point x="51" y="380" type="curve" smooth="yes"/>
      <point x="34" y="301"/>
      <point x="59" y="245"/>
      <point x="155" y="207" type="curve" smooth="yes"/>
      <point x="209" y="185"/>
      <point x="226" y="174"/>
      <point x="222" y="158" type="curve" smooth="yes"/>
      <point x="219" y="146"/>
      <point x="203" y="143"/>
      <point x="184" y="141" type="curve"/>
      <point x="171" y="141"/>
      <point x="98" y="170"/>
      <point x="29" y="203" type="curve"/>
      <point x="-18" y="26" type="line"/>
      <point x="65" y="5"/>
      <point x="164" y="-16"/>
    </contour>
  </outline>
</glyph>
<glyph name="x" format="2">
  <advance width="613"/>
  <unicode hex="0078"/>
  <outline>
    <contour>
      <point x="-53" y="0" type="curve"/>
      <point x="232" y="0" type="line"/>
      <point x="241" y="32"/>
      <point x="247" y="54"/>
      <point x="256" y="88" type="curve"/>
      <point x="280" y="147" type="line"/>
      <point x="293" y="147" type="line"/>
      <point x="297" y="83" type="line"/>
      <point x="296" y="52"/>
      <point x="295" y="29"/>
      <point x="294" y="0" type="curve"/>
      <point x="564" y="0" type="line"/>
      <point x="534" y="68"/>
      <point x="515" y="112"/>
      <point x="493" y="161" type="curve"/>
      <point x="448" y="284" type="line"/>
      <point x="451" y="241" type="line"/>
      <point x="538" y="351" type="line"/>
      <point x="580" y="401"/>
      <point x="609" y="435"/>
      <point x="665" y="502" type="curve"/>
      <point x="379" y="502" type="line"/>
      <point x="368" y="470"/>
      <point x="360" y="446"/>
      <point x="349" y="412" type="curve"/>
      <point x="323" y="353" type="line"/>
      <point x="308" y="353" type="line"/>
      <point x="302" y="413" type="line"/>
      <point x="302" y="447"/>
      <point x="302" y="475"/>
      <point x="302" y="508" type="curve"/>
      <point x="49" y="502" type="line"/>
      <point x="74" y="439"/>
      <point x="90" y="400"/>
      <point x="110" y="350" type="curve"/>
      <point x="146" y="241" type="line"/>
      <point x="155" y="284" type="line"/>
      <point x="73" y="164" type="line"/>
      <point x="31" y="109"/>
      <point x="1" y="70"/>
    </contour>
  </outline>
</glyph>
<glyph name="y" format="2">
  <advance width="583"/>
  <unicode hex="0079"/>
  <anchor x="458" y="0" name="bottom"/>
  <anchor x="344" y="502" name="top"/>
  <outline>
    <contour>
      <point x="-26" y="-198" type="curve"/>
      <point x="248" y="-192" type="line"/>
      <point x="285" y="-120"/>
      <point x="330" y="-35"/>
      <point x="396" y="92" type="curve"/>
      <point x="478" y="233" type="line"/>
      <point x="552" y="358"/>
      <point x="590" y="421"/>
      <point x="638" y="502" type="curve"/>
      <point x="369" y="502" type="line"/>
      <point x="354" y="446"/>
      <point x="340" y="393"/>
      <point x="325" y="337" type="curve"/>
      <point x="288" y="230" type="line"/>
      <point x="272" y="230" type="line"/>
      <point x="277" y="338" type="line"/>
      <point x="284" y="396"/>
      <point x="291" y="450"/>
      <point x="298" y="508" type="curve"/>
      <point x="45" y="502" type="line"/>
      <point x="58" y="430"/>
      <point x="71" y="354"/>
      <point x="84" y="282" type="curve"/>
      <point x="95" y="192" type="line"/>
      <point x="99" y="123"/>
      <point x="104" y="54"/>
      <point x="108" y="-15" type="curve"/>
      <point x="126" y="30" type="line"/>
      <point x="77" y="-43"/>
      <point x="23" y="-125"/>
    </contour>
  </outline>
</glyph>
<glyph name="z" format="2">
  <advance width="536"/>
  <unicode hex="007A"/>
  <anchor x="214" y="0" name="bottom"/>
  <anchor x="267" y="251" name="center"/>
  <anchor x="320" y="502" name="top"/>
  <outline>
    <contour>
      <point x="-29" y="0" type="line"/>
      <point x="459" y="0" type="line"/>
      <point x="498" y="185" type="line"/>
      <point x="443" y="176"/>
      <point x="378" y="166"/>
      <point x="338" y="160" type="curve"/>
      <point x="250" y="160" type="line"/>
      <point x="272" y="116" type="line"/>
      <point x="392" y="240" type="line"/>
      <point x="434" y="277"/>
      <point x="485" y="322"/>
      <point x="521" y="354" type="curve"/>
      <point x="552" y="502" type="line"/>
      <point x="84" y="502" type="line"/>
      <point x="44" y="312" type="line"/>
      <point x="101" y="322"/>
      <point x="171" y="334"/>
      <point x="213" y="341" type="curve"/>
      <point x="295" y="341" type="line"/>
      <point x="264" y="396" type="line"/>
      <point x="134" y="254" type="line"/>
      <point x="94" y="217"/>
      <point x="47" y="173"/>
      <point x="-2" y="128" type="curve"/>
    </contour>
  </outline>
</glyph>
<glyph name="braceleft" format="2">
  <advance width="490"/>
  <unicode hex="007B"/>
  <outline>
    <contour>
      <point x="275" y="-130" type="curve" smooth="yes"/>
      <point x="380" y="-130" type="line"/>
      <point x="417" y="48" type="line"/>
      <point x="383" y="46"/>
      <point x="355" y="44"/>
      <point x="338" y="43" type="curve"/>
      <point x="306" y="47"/>
      <point x="298" y="73"/>
      <point x="304" y="110" type="curve" smooth="yes"/>
      <point x="323" y="233" type="line" smooth="yes"/>
      <point x="326" y="250"/>
      <point x="281" y="289"/>
      <point x="239" y="319" type="curve"/>
      <point x="242" y="334" type="line"/>
      <point x="293" y="365"/>
      <point x="359" y="410"/>
      <point x="364" y="430" type="curve" smooth="yes"/>
      <point x="397" y="553" type="line" smooth="yes"/>
      <point x="407" y="590"/>
      <point x="424" y="606"/>
      <point x="457" y="610" type="curve"/>
      <point x="474" y="609"/>
      <point x="500" y="607"/>
      <point x="529" y="605" type="curve"/>
      <point x="567" y="783" type="line"/>
      <point x="447" y="783" type="line" smooth="yes"/>
      <point x="313" y="783"/>
      <point x="219" y="733"/>
      <point x="199" y="612" type="curve"/>
      <point x="198" y="606"/>
      <point x="179" y="485"/>
      <point x="178" y="480" type="curve"/>
      <point x="168" y="430"/>
      <point x="139" y="403"/>
      <point x="98" y="403" type="curve" smooth="yes"/>
      <point x="52" y="403" type="line"/>
      <point x="20" y="250" type="line"/>
      <point x="66" y="250" type="line" smooth="yes"/>
      <point x="107" y="250"/>
      <point x="124" y="223"/>
      <point x="114" y="173" type="curve"/>
      <point x="113" y="168"/>
      <point x="89" y="82"/>
      <point x="88" y="77" type="curve"/>
      <point x="64" y="-43"/>
      <point x="141" y="-130"/>
    </contour>
  </outline>
</glyph>
<glyph name="sterling" format="2">
  <advance width="623"/>
  <unicode hex="00A3"/>
  <outline>
    <contour>
      <point x="-18" y="0" type="line"/>
      <point x="540" y="0" type="line"/>
      <point x="587" y="221" type="line"/>
      <point x="513" y="215"/>
      <point x="410" y="207"/>
      <point x="322" y="200" type="curve"/>
      <point x="195" y="200" type="line"/>
      <point x="254" y="170" type="line"/>
      <point x="330" y="262"/>
      <point x="348" y="290"/>
      <point x="354" y="319" type="curve" smooth="yes"/>
      <point x="375" y="424" type="line" smooth="yes"/>
      <point x="387" y="482"/>
      <point x="423" y="509"/>
      <point x="472" y="513" type="curve"/>
      <point x="482" y="513"/>
      <point x="544" y="495"/>
      <point x="599" y="473" type="curve"/>
      <point x="662" y="674" type="line"/>
      <point x="585" y="691"/>
      <point x="479" y="706"/>
      <point x="445" y="706" type="curve" smooth="yes"/>
      <point x="272" y="706"/>
      <point x="171" y="614"/>
      <point x="138" y="453" type="curve" smooth="yes"/>
      <point x="126" y="395"/>
      <point x="117" y="311"/>
      <point x="102" y="239" type="curve"/>
      <point x="97" y="220"/>
      <point x="80" y="195"/>
      <point x="7" y="120" type="curve"/>
    </contour>
    <contour>
      <point x="48" y="274" type="line"/>
      <point x="124" y="277"/>
      <point x="200" y="280"/>
      <point x="258" y="282" type="curve"/>
      <point x="302" y="282" type="line"/>
      <point x="358" y="280"/>
      <point x="434" y="277"/>
      <point x="508" y="274" type="curve"/>
      <point x="543" y="440" type="line"/>
      <point x="468" y="437"/>
      <point x="391" y="434"/>
      <point x="333" y="432" type="curve"/>
      <point x="289" y="432" type="line"/>
      <point x="233" y="434"/>
      <point x="158" y="437"/>
      <point x="83" y="440" type="curve"/>
    </contour>
  </outline>
</glyph>
<glyph name="yen" format="2">
  <advance width="683"/>
  <unicode hex="00A5"/>
  <outline>
    <contour>
      <point x="236" y="220" type="line"/>
      <point x="441" y="220" type="line"/>
      <point x="633" y="504" type="line"/>
      <point x="683" y="569"/>
      <point x="731" y="631"/>
      <point x="776" y="690" type="curve"/>
      <point x="467" y="690" type="line"/>
      <point x="447" y="626"/>
      <point x="437" y="595"/>
      <point x="421" y="544" type="curve"/>
      <point x="385" y="460" type="line"/>
      <point x="371" y="460" type="line"/>
      <point x="366" y="538" type="line"/>
      <point x="369" y="587"/>
      <point x="371" y="626"/>
      <point x="375" y="690" type="curve"/>
      <point x="91" y="690" type="line"/>
      <point x="126" y="594"/>
      <point x="140" y="556"/>
      <point x="160" y="501" type="curve"/>
    </contour>
    <contour>
      <point x="156" y="0" type="curve"/>
      <point x="426" y="0" type="line"/>
      <point x="435" y="71"/>
      <point x="443" y="131"/>
      <point x="454" y="217" type="curve"/>
      <point x="495" y="411" type="line"/>
      <point x="261" y="411" type="line"/>
      <point x="220" y="218" type="line"/>
      <point x="195" y="132"/>
      <point x="177" y="71"/>
    </contour>
    <contour>
      <point x="29" y="89" type="line"/>
      <point x="104" y="92"/>
      <point x="181" y="95"/>
      <point x="238" y="97" type="curve"/>
      <point x="382" y="97" type="line"/>
      <point x="439" y="95"/>
      <point x="514" y="92"/>
      <point x="589" y="89" type="curve"/>
      <point x="619" y="230" type="line"/>
      <point x="543" y="229"/>
      <point x="467" y="228"/>
      <point x="410" y="227" type="curve"/>
      <point x="266" y="227" type="line"/>
      <point x="209" y="228"/>
      <point x="133" y="229"/>
      <point x="59" y="230" type="curve"/>
    </contour>
    <contour>
      <point x="68" y="273" type="line"/>
      <point x="143" y="274"/>
      <point x="219" y="275"/>
      <point x="276" y="276" type="curve"/>
      <point x="420" y="276" type="line"/>
      <point x="477" y="275"/>
      <point x="553" y="274"/>
      <point x="628" y="273" type="curve"/>
      <point x="658" y="414" type="line"/>
      <point x="582" y="411"/>
      <point x="505" y="408"/>
      <point x="448" y="406" type="curve"/>
      <point x="304" y="406" type="line"/>
      <point x="247" y="408"/>
      <point x="172" y="411"/>
      <point x="98" y="414" type="curve"/>
    </contour>
  </outline>
</glyph>
<glyph name="brokenbar" format="2">
  <advance width="302"/>
  <unicode hex="00A6"/>
  <outline>
    <contour>
      <point x="78" y="356" type="line"/>
      <point x="268" y="356" type="line"/>
      <point x="288" y="447" type="line"/>
      <point x="298" y="487"/>
      <point x="336" y="639"/>
      <point x="370" y="776" type="curve"/>
      <point x="156" y="776" type="line"/>
      <point x="132" y="639"/>
      <point x="105" y="486"/>
      <point x="98" y="447" type="curve"/>
    </contour>
    <contour>
      <point x="-44" y="-164" type="curve"/>
      <point x="170" y="-164" type="line"/>
      <point x="194" y="-28"/>
      <point x="221" y="126"/>
      <point x="228" y="165" type="curve"/>
      <point x="247" y="256" type="line"/>
      <point x="57" y="256" type="line"/>
      <point x="38" y="165" type="line"/>
      <point x="29" y="128"/>
      <point x="-10" y="-27"/>
    </contour>
  </outline>
</glyph>
<glyph name="ordfeminine" format="2">
  <advance width="408"/>
  <unicode hex="00AA"/>
  <outline>
    <contour>
      <point x="152" y="326" type="curve" smooth="yes"/>
      <point x="168" y="326"/>
      <point x="214" y="353"/>
      <point x="258" y="386" type="curve"/>
      <point x="269" y="386" type="line"/>
      <point x="270" y="336" type="line"/>
      <point x="419" y="336" type="line"/>
      <point x="421" y="385"/>
      <point x="423" y="427"/>
      <point x="426" y="476" type="curve"/>
      <point x="430" y="495" type="line" smooth="yes"/>
      <point x="436" y="522"/>
      <point x="443" y="541"/>
      <point x="450" y="575" type="curve" smooth="yes"/>
      <point x="470" y="671"/>
      <point x="405" y="729"/>
      <point x="291" y="729" type="curve" smooth="yes"/>
      <point x="270" y="729"/>
      <point x="176" y="715"/>
      <point x="133" y="708" type="curve"/>
      <point x="109" y="569" type="line"/>
      <point x="178" y="586"/>
      <point x="235" y="599"/>
      <point x="242" y="599" type="curve" smooth="yes"/>
      <point x="286" y="599"/>
      <point x="304" y="582"/>
      <point x="300" y="567" type="curve"/>
      <point x="194" y="552" type="line" smooth="yes"/>
      <point x="139" y="544"/>
      <point x="78" y="525"/>
      <point x="62" y="450" type="curve" smooth="yes"/>
      <point x="47" y="378"/>
      <point x="86" y="326"/>
    </contour>
    <contour>
      <point x="240" y="447" type="curve" smooth="yes"/>
      <point x="225" y="447"/>
      <point x="211" y="458"/>
      <point x="215" y="478" type="curve" smooth="yes"/>
      <point x="219" y="496"/>
      <point x="235" y="502"/>
      <point x="250" y="506" type="curve" smooth="yes"/>
      <point x="272" y="512"/>
      <point x="282" y="517"/>
      <point x="289" y="525" type="curve"/>
      <point x="277" y="471" type="line"/>
      <point x="265" y="459"/>
      <point x="246" y="447"/>
    </contour>
  </outline>
</glyph>
<glyph name="multiply" format="2">
  <advance width="598"/>
  <unicode hex="00D7"/>
  <outline>
    <contour>
      <point x="402" y="39" type="curve"/>
      <point x="558" y="175" type="line"/>
      <point x="511" y="227"/>
      <point x="464" y="279"/>
      <point x="429" y="318" type="curve"/>
      <point x="338" y="427" type="line"/>
      <point x="306" y="470"/>
      <point x="264" y="525"/>
      <point x="222" y="581" type="curve"/>
      <point x="65" y="443" type="line"/>
      <point x="111" y="392"/>
      <point x="158" y="341"/>
      <point x="193" y="302" type="curve"/>
      <point x="285" y="191" type="line"/>
      <point x="318" y="149"/>
      <point x="361" y="93"/>
    </contour>
    <contour>
      <point x="126" y="31" type="line"/>
      <point x="191" y="86"/>
      <point x="254" y="140"/>
      <point x="302" y="182" type="curve"/>
      <point x="436" y="288" type="line"/>
      <point x="486" y="325"/>
      <point x="555" y="375"/>
      <point x="623" y="424" type="curve"/>
      <point x="496" y="588" type="line"/>
      <point x="433" y="533"/>
      <point x="368" y="477"/>
      <point x="321" y="436" type="curve"/>
      <point x="187" y="330" type="line"/>
      <point x="137" y="293"/>
      <point x="68" y="243"/>
      <point x="0" y="194" type="curve"/>
    </contour>
  </outline>
</glyph>
<glyph name="Oslash" format="2">
  <advance width="811"/>
  <unicode hex="00D8"/>
  <anchor x="353" y="0" name="bottom"/>
  <anchor x="428" y="357" name="center"/>
  <anchor x="520" y="0" name="ogonek"/>
  <anchor x="503" y="713" name="top"/>
  <anchor x="121" y="713" name="topleft"/>
  <anchor x="793" y="713" name="topright"/>
  <outline>
    <contour>
      <point x="400" y="-16" type="curve" smooth="yes"/>
      <point x="623" y="-16"/>
      <point x="759" y="119"/>
      <point x="801" y="315" type="curve" smooth="yes"/>
      <point x="849" y="538"/>
      <point x="727" y="729"/>
      <point x="456" y="729" type="curve" smooth="yes"/>
      <point x="233" y="729"/>
      <point x="97" y="603"/>
      <point x="55" y="403" type="curve" smooth="yes"/>
      <point x="9" y="185"/>
      <point x="119" y="-16"/>
    </contour>
    <contour>
      <point x="404" y="182" type="curve"/>
      <point x="324" y="194"/>
      <point x="282" y="272"/>
      <point x="304" y="373" type="curve" smooth="yes"/>
      <point x="324" y="466"/>
      <point x="378" y="521"/>
      <point x="453" y="531" type="curve"/>
      <point x="539" y="519"/>
      <point x="571" y="437"/>
      <point x="550" y="340" type="curve" smooth="yes"/>
      <point x="529" y="241"/>
      <point x="475" y="190"/>
    </contour>
    <contour>
      <point x="143" y="-96" type="line"/>
      <point x="215" y="-8"/>
      <point x="281" y="73"/>
      <point x="361" y="171" type="curve"/>
      <point x="588" y="432" type="line"/>
      <point x="673" y="523"/>
      <point x="743" y="598"/>
      <point x="825" y="686" type="curve"/>
      <point x="698" y="786" type="line"/>
      <point x="623" y="694"/>
      <point x="559" y="615"/>
      <point x="479" y="516" type="curve"/>
      <point x="257" y="261" type="line"/>
      <point x="171" y="169"/>
      <point x="105" y="98"/>
      <point x="23" y="10" type="curve"/>
    </contour>
  </outline>
</glyph>
<glyph name="dcroat" format="2">
  <advance width="594"/>
  <unicode hex="0111"/>
  <outline>
    <contour>
      <point x="274" y="540" type="line"/>
      <point x="338" y="543"/>
      <point x="398" y="547"/>
      <point x="452" y="550" type="curve"/>
      <point x="500" y="550" type="line"/>
      <point x="552" y="547"/>
      <point x="612" y="544"/>
      <point x="674" y="540" type="curve"/>
      <point x="705" y="691" type="line"/>
      <point x="642" y="691"/>
      <point x="582" y="691"/>
      <point x="529" y="691" type="curve"/>
      <point x="481" y="691" type="line"/>
      <point x="430" y="694"/>
      <point x="371" y="697"/>
      <point x="308" y="701" type="curve"/>
    </contour>
    <contour>
      <point x="164" y="-16" type="curve" smooth="yes"/>
      <point x="199" y="-16"/>
      <point x="251" y="11"/>
      <point x="305" y="52" type="curve"/>
      <point x="318" y="52" type="line"/>
      <point x="319" y="0" type="line"/>
      <point x="523" y="0" type="line"/>
      <point x="532" y="69"/>
      <point x="539" y="129"/>
      <point x="550" y="213" type="curve"/>
      <point x="609" y="493" type="line"/>
      <point x="629" y="589"/>
      <point x="647" y="673"/>
      <point x="663" y="750" type="curve"/>
      <point x="402" y="732" type="line"/>
      <point x="398" y="649"/>
      <point x="393" y="572"/>
      <point x="387" y="493" type="curve"/>
      <point x="380" y="458" type="line"/>
      <point x="364" y="458" type="line"/>
      <point x="322" y="495"/>
      <point x="277" y="518"/>
      <point x="246" y="518" type="curve" smooth="yes"/>
      <point x="130" y="518"/>
      <point x="54" y="411"/>
      <point x="24" y="270" type="curve" smooth="yes"/>
      <point x="-8" y="118"/>
      <point x="34" y="-16"/>
    </contour>
    <contour>
      <point x="283" y="169" type="curve"/>
      <point x="252" y="172"/>
      <point x="240" y="217"/>
      <point x="248" y="254" type="curve" smooth="yes"/>
      <point x="257" y="297"/>
      <point x="281" y="326"/>
      <point x="315" y="330" type="curve"/>
      <point x="330" y="327"/>
      <point x="342" y="320"/>
      <point x="349" y="312" type="curve"/>
      <point x="325" y="197" type="line"/>
      <point x="314" y="182"/>
      <point x="299" y="173"/>
    </contour>
  </outline>
</glyph>
<glyph name="lslash" format="2">
  <advance width="412"/>
  <unicode hex="0142"/>
  <outline>
    <contour>
      <point x="22" y="220" type="line"/>
      <point x="89" y="242"/>
      <point x="150" y="263"/>
      <point x="208" y="282" type="curve"/>
      <point x="259" y="296" type="line"/>
      <point x="321" y="310"/>
      <point x="383" y="324"/>
      <point x="450" y="339" type="curve"/>
      <point x="436" y="502" type="line"/>
      <point x="366" y="479"/>
      <point x="305" y="458"/>
      <point x="247" y="439" type="curve"/>
      <point x="196" y="425" type="line"/>
      <point x="135" y="411"/>
      <point x="75" y="398"/>
      <point x="8" y="383" type="curve"/>
    </contour>
    <contour>
      <point x="29" y="0" type="curve"/>
      <point x="287" y="0" type="line"/>
      <point x="296" y="69"/>
      <point x="303" y="129"/>
      <point x="314" y="213" type="curve"/>
      <point x="373" y="493" type="line"/>
      <point x="402" y="589"/>
      <point x="427" y="675"/>
      <point x="451" y="752" type="curve"/>
      <point x="166" y="732" type="line"/>
      <point x="162" y="649"/>
      <point x="157" y="572"/>
      <point x="151" y="493" type="curve"/>
      <point x="92" y="213" type="line"/>
      <point x="67" y="129"/>
      <point x="50" y="69"/>
    </contour>
  </outline>
</glyph>
<glyph name="Eng" format="2">
  <advance width="756"/>
  <unicode hex="014A"/>
  <outline>
    <contour>
      <point x="313" y="-192" type="curve"/>
      <point x="536" y="-192" type="line"/>
      <point x="577" y="-145"/>
      <point x="659" y="-37"/>
      <point x="675" y="39" type="curve" smooth="yes"/>
      <point x="694" y="130"/>
      <point x="700" y="227"/>
      <point x="721" y="327" type="curve"/>
      <point x="752" y="474" type="line"/>
      <point x="780" y="572"/>
      <point x="799" y="636"/>
      <point x="821" y="713" type="curve"/>
      <point x="554" y="713" type="line"/>
      <point x="544" y="636"/>
      <point x="536" y="573"/>
      <point x="523" y="474" type="curve"/>
      <point x="505" y="389" type="line"/>
      <point x="488" y="389" type="line"/>
      <point x="440" y="512" type="line"/>
      <point x="425" y="570"/>
      <point x="408" y="634"/>
      <point x="387" y="713" type="curve"/>
      <point x="129" y="713" type="line"/>
      <point x="119" y="636"/>
      <point x="111" y="573"/>
      <point x="98" y="474" type="curve"/>
      <point x="46" y="229" type="line"/>
      <point x="19" y="137"/>
      <point x="1" y="74"/>
      <point x="-21" y="0" type="curve"/>
      <point x="246" y="0" type="line"/>
      <point x="255" y="72"/>
      <point x="263" y="136"/>
      <point x="275" y="229" type="curve"/>
      <point x="295" y="324" type="line"/>
      <point x="311" y="324" type="line"/>
      <point x="362" y="200" type="line"/>
      <point x="384" y="127"/>
      <point x="402" y="66"/>
      <point x="421" y="0" type="curve"/>
      <point x="483" y="0" type="line"/>
      <point x="427" y="112" type="line"/>
      <point x="411" y="41" type="line"/>
      <point x="377" y="-41"/>
      <point x="345" y="-117"/>
    </contour>
  </outline>
</glyph>
<glyph name="oe" format="2">
  <advance width="880"/>
  <unicode hex="0153"/>
  <anchor x="414" y="0" name="bottom"/>
  <anchor x="520" y="502" name="top"/>
  <outline>
    <contour>
      <point x="274" y="-16" type="curve" smooth="yes"/>
      <point x="425" y="-16"/>
      <point x="524" y="74"/>
      <point x="556" y="224" type="curve" smooth="yes"/>
      <point x="587" y="374"/>
      <point x="500" y="518"/>
      <point x="314" y="518" type="curve" smooth="yes"/>
      <point x="150" y="518"/>
      <point x="54" y="429"/>
      <point x="22" y="279" type="curve" smooth="yes"/>
      <point x="-8" y="129"/>
      <point x="71" y="-16"/>
    </contour>
    <contour>
      <point x="285" y="161" type="curve"/>
      <point x="253" y="166"/>
      <point x="236" y="209"/>
      <point x="246" y="259" type="curve" smooth="yes"/>
      <point x="256" y="308"/>
      <point x="281" y="336"/>
      <point x="316" y="341" type="curve"/>
      <point x="352" y="334"/>
      <point x="361" y="289"/>
      <point x="352" y="243" type="curve" smooth="yes"/>
      <point x="343" y="198"/>
      <point x="319" y="166"/>
    </contour>
    <contour>
      <point x="641" y="-16" type="curve" smooth="yes"/>
      <point x="683" y="-16"/>
      <point x="754" y="-3"/>
      <point x="804" y="11" type="curve"/>
      <point x="833" y="196" type="line"/>
      <point x="770" y="176"/>
      <point x="713" y="163"/>
      <point x="693" y="163" type="curve" smooth="yes"/>
      <point x="617" y="163"/>
      <point x="567" y="181"/>
      <point x="580" y="252" type="curve"/>
      <point x="588" y="288" type="line"/>
      <point x="603" y="346"/>
      <point x="630" y="373"/>
      <point x="656" y="377" type="curve"/>
      <point x="683" y="373"/>
      <point x="691" y="338"/>
      <point x="680" y="299" type="curve" smooth="yes"/>
      <point x="678" y="292"/>
      <point x="675" y="282"/>
      <point x="672" y="273" type="curve"/>
      <point x="848" y="218" type="line"/>
      <point x="855" y="237"/>
      <point x="860" y="255"/>
      <point x="866" y="281" type="curve" smooth="yes"/>
      <point x="901" y="434"/>
      <point x="823" y="518"/>
      <point x="651" y="518" type="curve" smooth="yes"/>
      <point x="500" y="518"/>
      <point x="406" y="420"/>
      <point x="377" y="274" type="curve" smooth="yes"/>
      <point x="341" y="92"/>
      <point x="448" y="-16"/>
    </contour>
    <contour>
      <point x="448" y="218" type="line"/>
      <point x="848" y="218" type="line"/>
      <point x="865" y="298" type="line"/>
      <point x="740" y="310" type="line"/>
      <point x="465" y="300" type="line"/>
    </contour>
  </outline>
</glyph>
<glyph name="tbar" format="2">
  <advance width="436"/>
  <unicode hex="0167"/>
  <outline>
    <contour>
      <point x="14" y="174" type="line"/>
      <point x="73" y="178"/>
      <point x="130" y="181"/>
      <point x="179" y="184" type="curve"/>
      <point x="223" y="184" type="line"/>
      <point x="270" y="181"/>
      <point x="327" y="178"/>
      <point x="384" y="174" type="curve"/>
      <point x="413" y="315" type="line"/>
      <point x="355" y="315"/>
      <point x="299" y="315"/>
      <point x="250" y="315" type="curve"/>
      <point x="206" y="315" type="line"/>
      <point x="157" y="315"/>
      <point x="101" y="315"/>
      <point x="43" y="315" type="curve"/>
    </contour>
    <contour>
      <point x="247" y="-16" type="curve" smooth="yes"/>
      <point x="264" y="-16"/>
      <point x="328" y="-7"/>
      <point x="365" y="4" type="curve"/>
      <point x="388" y="162" type="line"/>
      <point x="360" y="150"/>
      <point x="328" y="141"/>
      <point x="321" y="141" type="curve" smooth="yes"/>
      <point x="293" y="141"/>
      <point x="280" y="172"/>
      <point x="289" y="217" type="curve" smooth="yes"/>
      <point x="338" y="450" type="line"/>
      <point x="359" y="550"/>
      <point x="380" y="621"/>
      <point x="409" y="703" type="curve"/>
      <point x="146" y="663" type="line"/>
      <point x="142" y="594"/>
      <point x="136" y="534"/>
      <point x="119" y="450" type="curve"/>
      <point x="84" y="285"/>
      <point x="69" y="236"/>
      <point x="57" y="181" type="curve" smooth="yes"/>
      <point x="28" y="41"/>
      <point x="116" y="-16"/>
    </contour>
    <contour>
      <point x="29" y="331" type="line"/>
      <point x="164" y="343" type="line"/>
      <point x="266" y="343" type="line"/>
      <point x="319" y="340"/>
      <point x="378" y="335"/>
      <point x="434" y="331" type="curve"/>
      <point x="470" y="502" type="line"/>
      <point x="65" y="502" type="line"/>
    </contour>
  </outline>
</glyph>
<glyph name="ringhalfleft" format="2">
  <advance width="201"/>
  <unicode hex="02BF"/>
  <outline>
    <contour>
      <point x="255" y="538" type="curve"/>
      <point x="262" y="623" type="line"/>
      <point x="231" y="626"/>
      <point x="210" y="649"/>
      <point x="217" y="680" type="curve" smooth="yes"/>
      <point x="222" y="704"/>
      <point x="242" y="718"/>
      <point x="272" y="722" type="curve"/>
      <point x="278" y="806" type="line"/>
      <point x="192" y="806"/>
      <point x="133" y="771"/>
      <point x="114" y="691" type="curve" smooth="yes"/>
      <point x="94" y="602"/>
      <point x="157" y="538"/>
    </contour>
  </outline>
</glyph>
<glyph name="acutecomb" format="2">
  <unicode hex="0301"/>
  <anchor x="353" y="502" name="_top"/>
  <anchor x="407" y="759" name="top"/>
  <outline>
    <contour>
      <point x="247" y="553" type="curve"/>
      <point x="397" y="555" type="line"/>
      <point x="475" y="625"/>
      <point x="579" y="720"/>
      <point x="622" y="776" type="curve"/>
      <point x="370" y="771" type="line"/>
      <point x="329" y="699"/>
      <point x="289" y="627"/>
    </contour>
  </outline>
</glyph>
<glyph name="hungarumlautcomb" format="2">
  <unicode hex="030B"/>
  <anchor x="353" y="502" name="_top"/>
  <anchor x="408" y="767" name="top"/>
  <outline>
    <contour>
      <point x="392" y="553" type="curve"/>
      <point x="532" y="555" type="line"/>
      <point x="609" y="625"/>
      <point x="711" y="720"/>
      <point x="753" y="776" type="curve"/>
      <point x="515" y="771" type="line"/>
      <point x="474" y="699"/>
      <point x="434" y="627"/>
    </contour>
    <contour>
      <point x="159" y="553" type="curve"/>
      <point x="290" y="555" type="line"/>
      <point x="360" y="625"/>
      <point x="452" y="720"/>
      <point x="488" y="776" type="curve"/>
      <point x="259" y="771" type="line"/>
      <point x="226" y="699"/>
      <point x="193" y="628"/>
    </contour>
  </outline>
</glyph>
<glyph name="dblgravecomb" format="2">
  <unicode hex="030F"/>
  <anchor x="353" y="502" name="_top"/>
  <anchor x="408" y="767" name="top"/>
  <outline>
    <contour>
      <point x="198" y="553" type="curve"/>
      <point x="329" y="555" type="line"/>
      <point x="321" y="629"/>
      <point x="313" y="702"/>
      <point x="305" y="776" type="curve"/>
      <point x="87" y="771" type="line"/>
      <point x="102" y="716"/>
      <point x="156" y="622"/>
    </contour>
    <contour>
      <point x="430" y="553" type="curve"/>
      <point x="557" y="555" type="line"/>
      <point x="557" y="629"/>
      <point x="557" y="702"/>
      <point x="557" y="776" type="curve"/>
      <point x="345" y="771" type="line"/>
      <point x="354" y="716"/>
      <point x="396" y="622"/>
    </contour>
  </outline>
</glyph>
<glyph name="commaaccentcomb" format="2">
  <unicode hex="0326"/>
  <anchor x="247" y="0" name="_bottom"/>
  <anchor x="186" y="-293" name="bottom"/>
  <outline>
    <contour>
      <point x="74" y="-293" type="curve"/>
      <point x="172" y="-291" type="line"/>
      <point x="242" y="-244"/>
      <point x="325" y="-175"/>
      <point x="333" y="-133" type="curve" smooth="yes"/>
      <point x="343" y="-82"/>
      <point x="314" y="-40"/>
      <point x="246" y="-36" type="curve"/>
      <point x="132" y="-45" type="line"/>
      <point x="130" y="-82"/>
      <point x="127" y="-121"/>
      <point x="125" y="-156" type="curve"/>
      <point x="109" y="-200"/>
      <point x="93" y="-243"/>
    </contour>
  </outline>
</glyph>
<glyph name="pi" format="2">
  <advance width="648"/>
  <unicode hex="03C0"/>
  <outline>
    <contour>
      <point x="327" y="0" type="curve"/>
      <point x="574" y="0" type="line"/>
      <point x="569" y="65"/>
      <point x="564" y="131"/>
      <point x="560" y="187" type="curve"/>
      <point x="626" y="502" type="line"/>
      <point x="420" y="502" type="line"/>
      <point x="381" y="354"/>
      <point x="357" y="262"/>
      <point x="332" y="168" type="curve"/>
      <point x="329" y="155"/>
      <point x="328" y="65"/>
    </contour>
    <contour>
      <point x="5" y="0" type="curve"/>
      <point x="238" y="0" type="line"/>
      <point x="252" y="66"/>
      <point x="265" y="128"/>
      <point x="280" y="199" type="curve"/>
      <point x="294" y="265" type="line"/>
      <point x="314" y="344"/>
      <point x="334" y="423"/>
      <point x="354" y="502" type="curve"/>
      <point x="141" y="502" type="line"/>
      <point x="122" y="430"/>
      <point x="106" y="368"/>
      <point x="78" y="261" type="curve"/>
      <point x="68" y="213" type="line"/>
      <point x="43" y="128"/>
      <point x="25" y="68"/>
    </contour>
    <contour>
      <point x="27" y="321" type="line"/>
      <point x="165" y="343" type="line"/>
      <point x="478" y="343" type="line"/>
      <point x="529" y="337"/>
      <point x="588" y="329"/>
      <point x="643" y="321" type="curve"/>
      <point x="681" y="502" type="line"/>
      <point x="65" y="502" type="line"/>
    </contour>
  </outline>
</glyph>
<glyph name="bullet" format="2">
  <advance width="450"/>
  <unicode hex="2022"/>
  <outline>
    <contour>
      <point x="224" y="119" type="curve" smooth="yes"/>
      <point x="337" y="119"/>
      <point x="397" y="177"/>
      <point x="418" y="287" type="curve" smooth="yes"/>
      <point x="437" y="388"/>
      <point x="384" y="489"/>
      <point x="253" y="489" type="curve" smooth="yes"/>
      <point x="121" y="489"/>
      <point x="77" y="432"/>
      <point x="60" y="344" type="curve" smooth="yes"/>
      <point x="37" y="224"/>
      <point x="94" y="119"/>
    </contour>
  </outline>
</glyph>
<glyph name="minute" format="2">
  <advance width="290"/>
  <unicode hex="2032"/>
  <outline>
    <contour>
      <point x="52" y="309" type="curve"/>
      <point x="212" y="310" type="line"/>
      <point x="265" y="438"/>
      <point x="318" y="567"/>
      <point x="371" y="695" type="curve"/>
      <point x="141" y="690" type="line"/>
      <point x="112" y="565"/>
      <point x="83" y="441"/>
    </contour>
  </outline>
</glyph>
<glyph name="colonsign" format="2">
  <advance width="652"/>
  <unicode hex="20A1"/>
  <outline>
    <contour>
      <point x="366" y="-15" type="curve" smooth="yes"/>
      <point x="398" y="-15"/>
      <point x="510" y="1"/>
      <point x="561" y="15" type="curve"/>
      <point x="599" y="240" type="line"/>
      <point x="537" y="213"/>
      <point x="437" y="174"/>
      <point x="414" y="174" type="curve"/>
      <point x="304" y="178"/>
      <point x="270" y="265"/>
      <point x="289" y="358" type="curve" smooth="yes"/>
      <point x="312" y="468"/>
      <point x="382" y="506"/>
      <point x="453" y="510" type="curve"/>
      <point x="468" y="510"/>
      <point x="558" y="477"/>
      <point x="636" y="441" type="curve"/>
      <point x="698" y="654" type="line"/>
      <point x="613" y="682"/>
      <point x="495" y="706"/>
      <point x="457" y="706" type="curve" smooth="yes"/>
      <point x="222" y="706"/>
      <point x="94" y="591"/>
      <point x="52" y="387" type="curve" smooth="yes"/>
      <point x="6" y="167"/>
      <point x="120" y="-15"/>
    </contour>
    <contour>
      <point x="26" y="-137" type="curve"/>
      <point x="191" y="-137" type="line"/>
      <point x="243" y="-2"/>
      <point x="303" y="152"/>
      <point x="318" y="191" type="curve"/>
      <point x="438" y="474" type="line"/>
      <point x="457" y="514"/>
      <point x="527" y="666"/>
      <point x="590" y="803" type="curve"/>
      <point x="425" y="803" type="line"/>
      <point x="372" y="667"/>
      <point x="312" y="514"/>
      <point x="296" y="474" type="curve"/>
      <point x="177" y="192" type="line"/>
      <point x="160" y="155"/>
      <point x="89" y="0"/>
    </contour>
    <contour>
      <point x="209" y="-137" type="curve"/>
      <point x="374" y="-137" type="line"/>
      <point x="426" y="-2"/>
      <point x="486" y="152"/>
      <point x="501" y="191" type="curve"/>
      <point x="621" y="474" type="line"/>
      <point x="640" y="514"/>
      <point x="710" y="666"/>
      <point x="773" y="803" type="curve"/>
      <point x="608" y="803" type="line"/>
      <point x="555" y="667"/>
      <point x="495" y="514"/>
      <point x="479" y="474" type="curve"/>
      <point x="360" y="192" type="line"/>
      <point x="343" y="155"/>
      <point x="272" y="0"/>
    </contour>
  </outline>
</glyph>
<glyph name="peseta" format="2">
  <advance width="810"/>
  <unicode hex="20A7"/>
  <outline>
    <contour>
      <point x="308" y="205" type="line"/>
      <point x="345" y="204"/>
      <point x="407" y="202"/>
      <point x="454" y="201" type="curve"/>
      <point x="617" y="201"/>
      <point x="699" y="278"/>
      <point x="731" y="426" type="curve" smooth="yes"/>
      <point x="772" y="616"/>
      <point x="686" y="696"/>
      <point x="511" y="696" type="curve"/>
      <point x="376" y="693"/>
      <point x="265" y="691"/>
      <point x="192" y="690" type="curve"/>
      <point x="387" y="514" type="line"/>
      <point x="459" y="514" type="line" smooth="yes"/>
      <point x="490" y="514"/>
      <point x="505" y="485"/>
      <point x="494" y="434" type="curve" smooth="yes"/>
      <point x="483" y="382"/>
      <point x="465" y="369"/>
      <point x="430" y="369" type="curve" smooth="yes"/>
      <point x="343" y="369" type="line"/>
    </contour>
    <contour>
      <point x="45" y="0" type="curve"/>
      <point x="310" y="0" type="line"/>
      <point x="319" y="69"/>
      <point x="328" y="137"/>
      <point x="339" y="222" type="curve"/>
      <point x="382" y="425" type="line"/>
      <point x="407" y="516"/>
      <point x="425" y="582"/>
      <point x="444" y="652" type="curve"/>
      <point x="191" y="690" type="line"/>
      <point x="182" y="622"/>
      <point x="173" y="553"/>
      <point x="161" y="462" type="curve"/>
      <point x="110" y="222" type="line"/>
      <point x="85" y="136"/>
      <point x="66" y="72"/>
    </contour>
    <contour>
      <point x="48" y="358" type="line"/>
      <point x="123" y="361"/>
      <point x="200" y="364"/>
      <point x="257" y="366" type="curve"/>
      <point x="601" y="366" type="line"/>
      <point x="658" y="364"/>
      <point x="733" y="361"/>
      <point x="808" y="358" type="curve"/>
      <point x="843" y="524" type="line"/>
      <point x="767" y="521"/>
      <point x="691" y="518"/>
      <point x="633" y="516" type="curve"/>
      <point x="289" y="516" type="line"/>
      <point x="233" y="518"/>
      <point x="157" y="521"/>
      <point x="83" y="524" type="curve"/>
    </contour>
  </outline>
</glyph>
<glyph name="won" format="2">
  <advance width="1112"/>
  <unicode hex="20A9"/>
  <outline>
    <contour>
      <point x="154" y="0" type="curve"/>
      <point x="446" y="0" type="line"/>
      <point x="462" y="56"/>
      <point x="481" y="124"/>
      <point x="497" y="180" type="curve"/>
      <point x="557" y="349" type="line"/>
      <point x="572" y="349" type="line"/>
      <point x="563" y="177" type="line"/>
      <point x="556" y="120"/>
      <point x="548" y="57"/>
      <point x="541" y="0" type="curve"/>
      <point x="851" y="0" type="line"/>
      <point x="876" y="64"/>
      <point x="908" y="146"/>
      <point x="936" y="218" type="curve"/>
      <point x="1033" y="436" type="line"/>
      <point x="1068" y="502"/>
      <point x="1123" y="605"/>
      <point x="1168" y="690" type="curve"/>
      <point x="867" y="690" type="line"/>
      <point x="848" y="619"/>
      <point x="827" y="539"/>
      <point x="811" y="479" type="curve"/>
      <point x="750" y="282" type="line"/>
      <point x="735" y="282" type="line"/>
      <point x="749" y="472" type="line"/>
      <point x="758" y="538"/>
      <point x="769" y="625"/>
      <point x="778" y="690" type="curve"/>
      <point x="511" y="690" type="line"/>
      <point x="492" y="621"/>
      <point x="471" y="546"/>
      <point x="452" y="477" type="curve"/>
      <point x="387" y="282" type="line"/>
      <point x="371" y="282" type="line"/>
      <point x="391" y="472" type="line"/>
      <point x="401" y="539"/>
      <point x="414" y="623"/>
      <point x="424" y="690" type="curve"/>
      <point x="130" y="690" type="line"/>
      <point x="139" y="605"/>
      <point x="150" y="503"/>
      <point x="158" y="428" type="curve"/>
      <point x="163" y="217" type="line"/>
      <point x="160" y="149"/>
      <point x="157" y="75"/>
    </contour>
    <contour>
      <point x="25" y="275" type="line"/>
      <point x="101" y="278"/>
      <point x="177" y="281"/>
      <point x="235" y="283" type="curve"/>
      <point x="891" y="283" type="line"/>
      <point x="947" y="281"/>
      <point x="1023" y="278"/>
      <point x="1097" y="275" type="curve"/>
      <point x="1132" y="441" type="line"/>
      <point x="1057" y="438"/>
      <point x="980" y="435"/>
      <point x="923" y="433" type="curve"/>
      <point x="267" y="433" type="line"/>
      <point x="210" y="435"/>
      <point x="135" y="438"/>
      <point x="60" y="441" type="curve"/>
    </contour>
  </outline>
</glyph>
<glyph name="euro" format="2">
  <advance width="726"/>
  <unicode hex="20AC"/>
  <outline>
    <contour>
      <point x="433" y="-15" type="curve" smooth="yes"/>
      <point x="463" y="-15"/>
      <point x="570" y="-1"/>
      <point x="618" y="12" type="curve"/>
      <point x="653" y="218" type="line"/>
      <point x="595" y="200"/>
      <point x="502" y="174"/>
      <point x="481" y="174" type="curve"/>
      <point x="371" y="178"/>
      <point x="346" y="265"/>
      <point x="365" y="358" type="curve" smooth="yes"/>
      <point x="387" y="468"/>
      <point x="449" y="506"/>
      <point x="523" y="510" type="curve"/>
      <point x="537" y="510"/>
      <point x="623" y="488"/>
      <point x="698" y="464" type="curve"/>
      <point x="757" y="667" type="line"/>
      <point x="675" y="688"/>
      <point x="561" y="706"/>
      <point x="524" y="706" type="curve" smooth="yes"/>
      <point x="289" y="706"/>
      <point x="170" y="591"/>
      <point x="128" y="387" type="curve" smooth="yes"/>
      <point x="83" y="167"/>
      <point x="187" y="-15"/>
    </contour>
    <contour>
      <point x="20" y="223" type="line"/>
      <point x="97" y="230"/>
      <point x="168" y="231"/>
      <point x="230" y="231" type="curve"/>
      <point x="344" y="231" type="line"/>
      <point x="406" y="231"/>
      <point x="477" y="230"/>
      <point x="551" y="228" type="curve"/>
      <point x="572" y="324" type="line"/>
      <point x="496" y="322"/>
      <point x="425" y="321"/>
      <point x="363" y="321" type="curve"/>
      <point x="249" y="321" type="line"/>
      <point x="187" y="321"/>
      <point x="116" y="322"/>
      <point x="42" y="324" type="curve"/>
    </contour>
    <contour>
      <point x="49" y="357" type="line"/>
      <point x="124" y="359"/>
      <point x="195" y="360"/>
      <point x="257" y="360" type="curve"/>
      <point x="401" y="360" type="line"/>
      <point x="463" y="360"/>
      <point x="534" y="359"/>
      <point x="609" y="357" type="curve"/>
      <point x="629" y="453" type="line"/>
      <point x="554" y="451"/>
      <point x="482" y="450"/>
      <point x="420" y="450" type="curve"/>
      <point x="276" y="450" type="line"/>
      <point x="214" y="450"/>
      <point x="144" y="451"/>
      <point x="70" y="458" type="curve"/>
    </contour>
  </outline>
</glyph>
<glyph name="kip" format="2">
  <advance width="783"/>
  <unicode hex="20AD"/>
  <outline>
    <contour>
      <point x="419" y="0" type="curve"/>
      <point x="723" y="0" type="line"/>
      <point x="692" y="70"/>
      <point x="641" y="185"/>
      <point x="607" y="261" type="curve"/>
      <point x="541" y="437" type="line"/>
      <point x="559" y="334" type="line"/>
      <point x="670" y="472" type="line"/>
      <point x="731" y="541"/>
      <point x="796" y="614"/>
      <point x="863" y="690" type="curve"/>
      <point x="553" y="690" type="line"/>
      <point x="521" y="630"/>
      <point x="496" y="583"/>
      <point x="470" y="534" type="curve"/>
      <point x="402" y="428" type="line"/>
      <point x="356" y="428" type="line"/>
      <point x="326" y="288" type="line"/>
      <point x="375" y="288" type="line"/>
      <point x="404" y="160" type="line"/>
      <point x="409" y="111"/>
      <point x="413" y="63"/>
    </contour>
    <contour>
      <point x="45" y="0" type="curve"/>
      <point x="315" y="0" type="line"/>
      <point x="324" y="71"/>
      <point x="332" y="133"/>
      <point x="343" y="218" type="curve"/>
      <point x="395" y="463" type="line"/>
      <point x="421" y="552"/>
      <point x="440" y="618"/>
      <point x="461" y="690" type="curve"/>
      <point x="191" y="690" type="line"/>
      <point x="182" y="621"/>
      <point x="173" y="553"/>
      <point x="161" y="463" type="curve"/>
      <point x="109" y="218" type="line"/>
      <point x="84" y="133"/>
      <point x="66" y="71"/>
    </contour>
    <contour>
      <point x="30" y="275" type="line"/>
      <point x="106" y="278"/>
      <point x="182" y="281"/>
      <point x="240" y="283" type="curve"/>
      <point x="554" y="283" type="line"/>
      <point x="610" y="281"/>
      <point x="686" y="278"/>
      <point x="760" y="275" type="curve"/>
      <point x="795" y="441" type="line"/>
      <point x="720" y="438"/>
      <point x="643" y="435"/>
      <point x="586" y="433" type="curve"/>
      <point x="272" y="433" type="line"/>
      <point x="215" y="435"/>
      <point x="140" y="438"/>
      <point x="65" y="441" type="curve"/>
    </contour>
  </outline>
</glyph>
<glyph name="peso" format="2">
  <advance width="810"/>
  <unicode hex="20B1"/>
  <outline>
    <contour>
      <point x="308" y="205" type="line"/>
      <point x="345" y="204"/>
      <point x="407" y="202"/>
      <point x="454" y="201" type="curve"/>
      <point x="617" y="201"/>
      <point x="699" y="278"/>
      <point x="731" y="426" type="curve" smooth="yes"/>
      <point x="772" y="616"/>
      <point x="686" y="696"/>
      <point x="511" y="696" type="curve"/>
      <point x="376" y="693"/>
      <point x="265" y="691"/>
      <point x="192" y="690" type="curve"/>
      <point x="387" y="514" type="line"/>
      <point x="459" y="514" type="line" smooth="yes"/>
      <point x="490" y="514"/>
      <point x="505" y="485"/>
      <point x="494" y="434" type="curve" smooth="yes"/>
      <point x="483" y="382"/>
      <point x="465" y="369"/>
      <point x="430" y="369" type="curve" smooth="yes"/>
      <point x="343" y="369" type="line"/>
    </contour>
    <contour>
      <point x="70" y="461" type="line"/>
      <point x="145" y="461"/>
      <point x="216" y="461"/>
      <point x="278" y="461" type="curve"/>
      <point x="622" y="461" type="line"/>
      <point x="684" y="461"/>
      <point x="755" y="461"/>
      <point x="830" y="461" type="curve"/>
      <point x="850" y="559" type="line"/>
      <point x="775" y="556"/>
      <point x="698" y="553"/>
      <point x="641" y="551" type="curve"/>
      <point x="297" y="551" type="line"/>
      <point x="240" y="553"/>
      <point x="165" y="556"/>
      <point x="90" y="559" type="curve"/>
    </contour>
    <contour>
      <point x="45" y="0" type="curve"/>
      <point x="310" y="0" type="line"/>
      <point x="319" y="69"/>
      <point x="328" y="137"/>
      <point x="339" y="222" type="curve"/>
      <point x="382" y="425" type="line"/>
      <point x="407" y="516"/>
      <point x="425" y="582"/>
      <point x="444" y="652" type="curve"/>
      <point x="191" y="690" type="line"/>
      <point x="182" y="622"/>
      <point x="173" y="553"/>
      <point x="161" y="462" type="curve"/>
      <point x="110" y="222" type="line"/>
      <point x="85" y="136"/>
      <point x="66" y="72"/>
    </contour>
    <contour>
      <point x="41" y="324" type="line"/>
      <point x="116" y="327"/>
      <point x="193" y="330"/>
      <point x="250" y="332" type="curve"/>
      <point x="594" y="332" type="line"/>
      <point x="651" y="330"/>
      <point x="726" y="327"/>
      <point x="801" y="324" type="curve"/>
      <point x="821" y="422" type="line"/>
      <point x="746" y="422"/>
      <point x="675" y="422"/>
      <point x="613" y="422" type="curve"/>
      <point x="269" y="422" type="line"/>
      <point x="207" y="422"/>
      <point x="136" y="422"/>
      <point x="61" y="422" type="curve"/>
    </contour>
  </outline>
</glyph>
<glyph name="guarani" format="2">
  <advance width="693"/>
  <unicode hex="20B2"/>
  <outline>
    <contour>
      <point x="381" y="-14" type="curve" smooth="yes"/>
      <point x="435" y="-14"/>
      <point x="537" y="3"/>
      <point x="604" y="12" type="curve"/>
      <point x="609" y="222" type="line"/>
      <point x="537" y="200"/>
      <point x="428" y="169"/>
      <point x="400" y="169" type="curve"/>
      <point x="302" y="172"/>
      <point x="269" y="266"/>
      <point x="289" y="362" type="curve" smooth="yes"/>
      <point x="314" y="479"/>
      <point x="389" y="507"/>
      <point x="452" y="510" type="curve"/>
      <point x="469" y="510"/>
      <point x="570" y="477"/>
      <point x="658" y="441" type="curve"/>
      <point x="722" y="655" type="line"/>
      <point x="625" y="682"/>
      <point x="490" y="706"/>
      <point x="447" y="706" type="curve" smooth="yes"/>
      <point x="232" y="706"/>
      <point x="99" y="605"/>
      <point x="53" y="390" type="curve" smooth="yes"/>
      <point x="7" y="176"/>
      <point x="107" y="-14"/>
    </contour>
    <contour>
      <point x="212" y="-137" type="curve"/>
      <point x="396" y="-137" type="line"/>
      <point x="420" y="-1"/>
      <point x="447" y="153"/>
      <point x="454" y="192" type="curve"/>
      <point x="514" y="474" type="line"/>
      <point x="524" y="514"/>
      <point x="562" y="666"/>
      <point x="596" y="803" type="curve"/>
      <point x="412" y="803" type="line"/>
      <point x="388" y="666"/>
      <point x="361" y="513"/>
      <point x="354" y="474" type="curve"/>
      <point x="294" y="192" type="line"/>
      <point x="285" y="155"/>
      <point x="246" y="0"/>
    </contour>
    <contour>
      <point x="367" y="12" type="curve"/>
      <point x="604" y="12" type="line"/>
      <point x="616" y="87"/>
      <point x="625" y="142"/>
      <point x="634" y="199" type="curve"/>
      <point x="655" y="265"/>
      <point x="669" y="310"/>
      <point x="687" y="366" type="curve"/>
      <point x="432" y="366" type="line"/>
      <point x="426" y="306"/>
      <point x="422" y="267"/>
      <point x="415" y="199" type="curve"/>
      <point x="401" y="144"/>
      <point x="385" y="83"/>
    </contour>
  </outline>
</glyph>
<glyph name="cedi" format="2">
  <advance width="652"/>
  <unicode hex="20B5"/>
  <outline>
    <contour>
      <point x="212" y="-137" type="curve"/>
      <point x="396" y="-137" type="line"/>
      <point x="420" y="-1"/>
      <point x="447" y="153"/>
      <point x="454" y="192" type="curve"/>
      <point x="514" y="474" type="line"/>
      <point x="524" y="514"/>
      <point x="562" y="666"/>
      <point x="596" y="803" type="curve"/>
      <point x="412" y="803" type="line"/>
      <point x="388" y="666"/>
      <point x="361" y="513"/>
      <point x="354" y="474" type="curve"/>
      <point x="294" y="192" type="line"/>
      <point x="285" y="155"/>
      <point x="246" y="0"/>
    </contour>
    <contour>
      <point x="366" y="-15" type="curve" smooth="yes"/>
      <point x="398" y="-15"/>
      <point x="510" y="1"/>
      <point x="561" y="15" type="curve"/>
      <point x="599" y="240" type="line"/>
      <point x="537" y="213"/>
      <point x="437" y="174"/>
      <point x="414" y="174" type="curve"/>
      <point x="304" y="178"/>
      <point x="270" y="265"/>
      <point x="289" y="358" type="curve" smooth="yes"/>
      <point x="312" y="468"/>
      <point x="382" y="506"/>
      <point x="453" y="510" type="curve"/>
      <point x="468" y="510"/>
      <point x="558" y="477"/>
      <point x="636" y="441" type="curve"/>
      <point x="698" y="654" type="line"/>
      <point x="613" y="682"/>
      <point x="495" y="706"/>
      <point x="457" y="706" type="curve" smooth="yes"/>
      <point x="222" y="706"/>
      <point x="94" y="591"/>
      <point x="52" y="387" type="curve" smooth="yes"/>
      <point x="6" y="167"/>
      <point x="120" y="-15"/>
    </contour>
  </outline>
</glyph>
<glyph name="rupeeIndian" format="2">
  <advance width="645"/>
  <unicode hex="20B9"/>
  <outline>
    <contour>
      <point x="307" y="220" type="curve"/>
      <point x="438" y="220"/>
      <point x="500" y="288"/>
      <point x="519" y="374" type="curve" smooth="yes"/>
      <point x="535" y="450"/>
      <point x="516" y="503"/>
      <point x="470" y="524" type="curve"/>
      <point x="473" y="540" type="line"/>
      <point x="512" y="540" type="line"/>
      <point x="552" y="537"/>
      <point x="617" y="532"/>
      <point x="669" y="528" type="curve"/>
      <point x="703" y="690" type="line"/>
      <point x="143" y="690" type="line"/>
      <point x="109" y="528" type="line"/>
      <point x="145" y="532"/>
      <point x="183" y="536"/>
      <point x="218" y="540" type="curve"/>
      <point x="297" y="540"/>
      <point x="312" y="492"/>
      <point x="298" y="424" type="curve" smooth="yes"/>
      <point x="278" y="332"/>
      <point x="239" y="325"/>
      <point x="188" y="325" type="curve"/>
      <point x="155" y="327"/>
      <point x="111" y="330"/>
      <point x="67" y="333" type="curve"/>
      <point x="47" y="235" type="line"/>
      <point x="133" y="235" type="line"/>
      <point x="224" y="224" type="line"/>
      <point x="252" y="224"/>
      <point x="279" y="220"/>
    </contour>
    <contour>
      <point x="227" y="0" type="curve"/>
      <point x="559" y="0" type="line"/>
      <point x="506" y="53"/>
      <point x="434" y="126"/>
      <point x="378" y="182" type="curve"/>
      <point x="261" y="313" type="line"/>
      <point x="47" y="235" type="line"/>
      <point x="139" y="126" type="line"/>
      <point x="165" y="89"/>
      <point x="196" y="44"/>
    </contour>
    <contour>
      <point x="77" y="379" type="line"/>
      <point x="153" y="382"/>
      <point x="229" y="385"/>
      <point x="287" y="387" type="curve"/>
      <point x="431" y="387" type="line"/>
      <point x="487" y="385"/>
      <point x="563" y="382"/>
      <point x="637" y="379" type="curve"/>
      <point x="660" y="485" type="line"/>
      <point x="584" y="482"/>
      <point x="507" y="479"/>
      <point x="450" y="477" type="curve"/>
      <point x="306" y="477" type="line"/>
      <point x="249" y="479"/>
      <point x="174" y="482"/>
      <point x="100" y="485" type="curve"/>
    </contour>
  </outline>
</glyph>
<glyph name="trademark" format="2">
  <advance width="897"/>
  <unicode hex="2122"/>
  <outline>
    <contour>
      <point x="366" y="310" type="curve"/>
      <point x="535" y="310" type="line"/>
      <point x="540" y="340"/>
      <point x="546" y="374"/>
      <point x="550" y="398" type="curve"/>
      <point x="569" y="455" type="line"/>
      <point x="579" y="455" type="line"/>
      <point x="584" y="397" type="line"/>
      <point x="582" y="369"/>
      <point x="580" y="335"/>
      <point x="578" y="310" type="curve"/>
      <point x="706" y="310" type="line"/>
      <point x="713" y="341"/>
      <point x="720" y="371"/>
      <point x="726" y="396" type="curve"/>
      <point x="748" y="455" type="line"/>
      <point x="758" y="455" type="line"/>
      <point x="754" y="401" type="line"/>
      <point x="748" y="375"/>
      <point x="739" y="336"/>
      <point x="733" y="310" type="curve"/>
      <point x="907" y="310" type="line"/>
      <point x="906" y="350"/>
      <point x="906" y="400"/>
      <point x="905" y="439" type="curve"/>
      <point x="915" y="568" type="line"/>
      <point x="923" y="620"/>
      <point x="929" y="661"/>
      <point x="936" y="709" type="curve"/>
      <point x="758" y="709" type="line"/>
      <point x="750" y="686"/>
      <point x="740" y="656"/>
      <point x="732" y="633" type="curve"/>
      <point x="697" y="563" type="line"/>
      <point x="687" y="563" type="line"/>
      <point x="678" y="636" type="line"/>
      <point x="679" y="660"/>
      <point x="680" y="685"/>
      <point x="681" y="709" type="curve"/>
      <point x="500" y="709" type="line"/>
      <point x="488" y="660"/>
      <point x="479" y="624"/>
      <point x="467" y="575" type="curve"/>
      <point x="423" y="444" type="line"/>
      <point x="403" y="397"/>
      <point x="386" y="357"/>
    </contour>
    <contour>
      <point x="111" y="310" type="curve"/>
      <point x="291" y="310" type="line"/>
      <point x="295" y="345"/>
      <point x="300" y="386"/>
      <point x="306" y="438" type="curve"/>
      <point x="330" y="552" type="line"/>
      <point x="346" y="605"/>
      <point x="357" y="641"/>
      <point x="370" y="684" type="curve"/>
      <point x="375" y="709" type="line"/>
      <point x="195" y="709" type="line"/>
      <point x="190" y="684" type="line"/>
      <point x="185" y="641"/>
      <point x="180" y="602"/>
      <point x="174" y="552" type="curve"/>
      <point x="150" y="438" type="line"/>
      <point x="134" y="386"/>
      <point x="122" y="346"/>
    </contour>
    <contour>
      <point x="80" y="559" type="line"/>
      <point x="109" y="564"/>
      <point x="140" y="569"/>
      <point x="175" y="575" type="curve"/>
      <point x="205" y="575" type="line"/>
      <point x="233" y="709" type="line"/>
      <point x="112" y="709" type="line"/>
    </contour>
    <contour>
      <point x="309" y="575" type="line"/>
      <point x="339" y="575" type="line"/>
      <point x="372" y="569"/>
      <point x="401" y="564"/>
      <point x="426" y="559" type="curve"/>
      <point x="458" y="709" type="line"/>
      <point x="337" y="709" type="line"/>
    </contour>
  </outline>
</glyph>
<glyph name="Ohm" format="2">
  <advance width="788"/>
  <unicode hex="2126"/>
  <outline>
    <contour>
      <point x="-23" y="0" type="line"/>
      <point x="323" y="0" type="line"/>
      <point x="338" y="89"/>
      <point x="350" y="161"/>
      <point x="369" y="274" type="curve"/>
      <point x="351" y="299"/>
      <point x="312" y="370"/>
      <point x="322" y="418" type="curve" smooth="yes"/>
      <point x="337" y="491"/>
      <point x="388" y="522"/>
      <point x="443" y="528" type="curve"/>
      <point x="503" y="520"/>
      <point x="546" y="471"/>
      <point x="530" y="398" type="curve" smooth="yes"/>
      <point x="518" y="346"/>
      <point x="461" y="293"/>
      <point x="429" y="274" type="curve"/>
      <point x="401" y="165"/>
      <point x="382" y="90"/>
      <point x="359" y="0" type="curve"/>
      <point x="705" y="0" type="line"/>
      <point x="751" y="217" type="line"/>
      <point x="704" y="210"/>
      <point x="657" y="203"/>
      <point x="584" y="192" type="curve"/>
      <point x="518" y="192" type="line"/>
      <point x="613" y="99" type="line"/>
      <point x="620" y="155"/>
      <point x="625" y="197"/>
      <point x="634" y="269" type="curve"/>
      <point x="468" y="167" type="line"/>
      <point x="654" y="225"/>
      <point x="765" y="294"/>
      <point x="790" y="414" type="curve" smooth="yes"/>
      <point x="822" y="570"/>
      <point x="706" y="725"/>
      <point x="453" y="725" type="curve" smooth="yes"/>
      <point x="230" y="725"/>
      <point x="110" y="627"/>
      <point x="79" y="477" type="curve" smooth="yes"/>
      <point x="60" y="385"/>
      <point x="108" y="244"/>
      <point x="296" y="167" type="curve"/>
      <point x="162" y="269" type="line"/>
      <point x="141" y="199"/>
      <point x="129" y="159"/>
      <point x="111" y="99" type="curve"/>
      <point x="246" y="192" type="line"/>
      <point x="180" y="192" type="line"/>
      <point x="111" y="203"/>
      <point x="66" y="210"/>
      <point x="23" y="217" type="curve"/>
    </contour>
  </outline>
</glyph>
<glyph name="estimated" format="2">
  <advance width="813"/>
  <unicode hex="212E"/>
  <outline>
    <contour>
      <point x="426" y="-9" type="curve" smooth="yes"/>
      <point x="597" y="-9"/>
      <point x="720" y="42"/>
      <point x="787" y="189" type="curve"/>
      <point x="633" y="189" type="line"/>
      <point x="600" y="65"/>
      <point x="530" y="21"/>
      <point x="426" y="21" type="curve" smooth="yes"/>
      <point x="213" y="21"/>
      <point x="173" y="148"/>
      <point x="173" y="343" type="curve" smooth="yes"/>
      <point x="173" y="537"/>
      <point x="215" y="666"/>
      <point x="424" y="666" type="curve" smooth="yes"/>
      <point x="635" y="666"/>
      <point x="662" y="549"/>
      <point x="675" y="342" type="curve"/>
      <point x="806" y="334" type="line"/>
      <point x="795" y="569"/>
      <point x="649" y="696"/>
      <point x="424" y="696" type="curve" smooth="yes"/>
      <point x="201" y="696"/>
      <point x="43" y="556"/>
      <point x="43" y="343" type="curve" smooth="yes"/>
      <point x="43" y="127"/>
      <point x="201" y="-9"/>
    </contour>
    <contour>
      <point x="253" y="45" type="curve"/>
      <point x="253" y="647" type="line"/>
      <point x="84" y="564"/>
      <point x="56" y="420"/>
      <point x="56" y="346" type="curve" smooth="yes"/>
      <point x="56" y="272"/>
      <point x="72" y="132"/>
    </contour>
    <contour>
      <point x="67" y="334" type="line"/>
      <point x="806" y="334" type="line"/>
      <point x="793" y="363" type="line"/>
      <point x="67" y="363" type="line"/>
    </contour>
    <contour>
      <point x="604" y="346" type="line"/>
      <point x="791" y="346" type="line"/>
      <point x="783" y="420"/>
      <point x="763" y="568"/>
      <point x="604" y="648" type="curve"/>
    </contour>
  </outline>
</glyph>
<glyph name="partialdiff" format="2">
  <advance width="598"/>
  <unicode hex="2202"/>
  <outline>
    <contour>
      <point x="277" y="-16" type="curve" smooth="yes"/>
      <point x="462" y="-16"/>
      <point x="548" y="95"/>
      <point x="588" y="289" type="curve" smooth="yes"/>
      <point x="646" y="571"/>
      <point x="522" y="706"/>
      <point x="335" y="706" type="curve" smooth="yes"/>
      <point x="303" y="706"/>
      <point x="190" y="685"/>
      <point x="139" y="674" type="curve"/>
      <point x="114" y="465" type="line"/>
      <point x="172" y="485"/>
      <point x="280" y="516"/>
      <point x="291" y="516" type="curve"/>
      <point x="382" y="509"/>
      <point x="396" y="451"/>
      <point x="372" y="325" type="curve" smooth="yes"/>
      <point x="350" y="208"/>
      <point x="318" y="165"/>
      <point x="283" y="161" type="curve"/>
      <point x="246" y="165"/>
      <point x="233" y="202"/>
      <point x="240" y="234" type="curve" smooth="yes"/>
      <point x="247" y="266"/>
      <point x="274" y="290"/>
      <point x="310" y="294" type="curve"/>
      <point x="324" y="291"/>
      <point x="349" y="280"/>
      <point x="370" y="262" type="curve"/>
      <point x="427" y="305"/>
      <point x="425" y="371"/>
      <point x="393" y="423" type="curve"/>
      <point x="369" y="406" type="line"/>
      <point x="316" y="425"/>
      <point x="272" y="437"/>
      <point x="236" y="437" type="curve" smooth="yes"/>
      <point x="140" y="437"/>
      <point x="49" y="400"/>
      <point x="20" y="264" type="curve" smooth="yes"/>
      <point x="-17" y="89"/>
      <point x="104" y="-16"/>
    </contour>
  </outline>
</glyph>
<glyph name="divisionslash" format="2">
  <advance width="444"/>
  <unicode hex="2215"/>
  <outline>
    <contour>
      <point x="-53" y="0" type="curve"/>
      <point x="188" y="0" type="line"/>
      <point x="220" y="75"/>
      <point x="246" y="136"/>
      <point x="285" y="228" type="curve"/>
      <point x="406" y="473" type="line"/>
      <point x="458" y="567"/>
      <point x="494" y="632"/>
      <point x="540" y="713" type="curve"/>
      <point x="300" y="713" type="line"/>
      <point x="267" y="636"/>
      <point x="240" y="572"/>
      <point x="199" y="477" type="curve"/>
      <point x="76" y="228" type="line"/>
      <point x="25" y="138"/>
      <point x="-9" y="77"/>
    </contour>
  </outline>
</glyph>
<glyph name="radical" format="2">
  <advance width="664"/>
  <unicode hex="221A"/>
  <outline>
    <contour>
      <point x="174" y="0" type="curve"/>
      <point x="485" y="0" type="line"/>
      <point x="509" y="73"/>
      <point x="529" y="133"/>
      <point x="560" y="227" type="curve"/>
      <point x="704" y="581" type="line"/>
      <point x="750" y="679"/>
      <point x="779" y="741"/>
      <point x="815" y="818" type="curve"/>
      <point x="569" y="818" type="line"/>
      <point x="553" y="762"/>
      <point x="541" y="719"/>
      <point x="522" y="652" type="curve"/>
      <point x="367" y="251" type="line"/>
      <point x="351" y="251" type="line"/>
      <point x="347" y="367" type="line"/>
      <point x="351" y="419"/>
      <point x="353" y="449"/>
      <point x="357" y="502" type="curve"/>
      <point x="133" y="502" type="line"/>
      <point x="157" y="299" type="line"/>
      <point x="164" y="179"/>
      <point x="169" y="92"/>
    </contour>
    <contour>
      <point x="31" y="304" type="line"/>
      <point x="107" y="307"/>
      <point x="184" y="310"/>
      <point x="241" y="312" type="curve"/>
      <point x="281" y="502" type="line"/>
      <point x="225" y="504"/>
      <point x="149" y="507"/>
      <point x="75" y="510" type="curve"/>
    </contour>
  </outline>
</glyph>
<glyph name="integral" format="2">
  <advance width="436"/>
  <unicode hex="222B"/>
  <outline>
    <contour>
      <point x="79" y="-207" type="curve" smooth="yes"/>
      <point x="192" y="-207"/>
      <point x="295" y="-168"/>
      <point x="316" y="28" type="curve" smooth="yes"/>
      <point x="324" y="112"/>
      <point x="335" y="356"/>
      <point x="352" y="520" type="curve" smooth="yes"/>
      <point x="356" y="559"/>
      <point x="377" y="567"/>
      <point x="400" y="570" type="curve"/>
      <point x="404" y="570"/>
      <point x="428" y="562"/>
      <point x="453" y="553" type="curve"/>
      <point x="488" y="740" type="line"/>
      <point x="446" y="745"/>
      <point x="375" y="749"/>
      <point x="361" y="749" type="curve" smooth="yes"/>
      <point x="248" y="749"/>
      <point x="145" y="710"/>
      <point x="125" y="514" type="curve" smooth="yes"/>
      <point x="116" y="430"/>
      <point x="105" y="186"/>
      <point x="88" y="22" type="curve" smooth="yes"/>
      <point x="84" y="-17"/>
      <point x="63" y="-25"/>
      <point x="41" y="-28" type="curve"/>
      <point x="37" y="-28"/>
      <point x="13" y="-20"/>
      <point x="-13" y="-11" type="curve"/>
      <point x="-48" y="-198" type="line"/>
      <point x="-6" y="-203"/>
      <point x="65" y="-207"/>
    </contour>
  </outline>
</glyph>
<glyph name="approxequal" format="2">
  <advance width="590"/>
  <unicode hex="2248"/>
  <outline>
    <contour>
      <point x="432" y="311" type="curve" smooth="yes"/>
      <point x="518" y="311"/>
      <point x="571" y="396"/>
      <point x="600" y="532" type="curve"/>
      <point x="475" y="532" type="line"/>
      <point x="463" y="514"/>
      <point x="454" y="502"/>
      <point x="436" y="499" type="curve"/>
      <point x="384" y="506"/>
      <point x="319" y="554"/>
      <point x="243" y="554" type="curve" smooth="yes"/>
      <point x="151" y="554"/>
      <point x="96" y="468"/>
      <point x="67" y="333" type="curve"/>
      <point x="192" y="333" type="line"/>
      <point x="204" y="351"/>
      <point x="216" y="363"/>
      <point x="236" y="366" type="curve"/>
      <point x="283" y="359"/>
      <point x="352" y="311"/>
    </contour>
    <contour>
      <point x="377" y="52" type="curve" smooth="yes"/>
      <point x="463" y="52"/>
      <point x="516" y="137"/>
      <point x="545" y="273" type="curve"/>
      <point x="420" y="273" type="line"/>
      <point x="408" y="255"/>
      <point x="399" y="243"/>
      <point x="381" y="240" type="curve"/>
      <point x="329" y="247"/>
      <point x="264" y="295"/>
      <point x="188" y="295" type="curve" smooth="yes"/>
      <point x="96" y="295"/>
      <point x="41" y="209"/>
      <point x="12" y="74" type="curve"/>
      <point x="137" y="74" type="line"/>
      <point x="149" y="92"/>
      <point x="161" y="104"/>
      <point x="181" y="107" type="curve"/>
      <point x="228" y="100"/>
      <point x="297" y="52"/>
    </contour>
  </outline>
</glyph>
<glyph name="greaterequal" format="2">
  <advance width="590"/>
  <unicode hex="2265"/>
  <outline>
    <contour>
      <point x="-15" y="-8" type="line"/>
      <point x="61" y="-5"/>
      <point x="137" y="-2"/>
      <point x="195" y="0" type="curve"/>
      <point x="289" y="0" type="line"/>
      <point x="345" y="-2"/>
      <point x="421" y="-5"/>
      <point x="495" y="-8" type="curve"/>
      <point x="539" y="198" type="line"/>
      <point x="463" y="195"/>
      <point x="386" y="192"/>
      <point x="329" y="190" type="curve"/>
      <point x="235" y="190" type="line"/>
      <point x="178" y="192"/>
      <point x="103" y="195"/>
      <point x="29" y="198" type="curve"/>
    </contour>
    <contour>
      <point x="30" y="203" type="line"/>
      <point x="113" y="234"/>
      <point x="188" y="262"/>
      <point x="255" y="287" type="curve"/>
      <point x="356" y="320" type="line"/>
      <point x="422" y="339"/>
      <point x="498" y="361"/>
      <point x="578" y="384" type="curve"/>
      <point x="623" y="594" type="line"/>
      <point x="553" y="617"/>
      <point x="486" y="639"/>
      <point x="428" y="658" type="curve"/>
      <point x="341" y="691" type="line"/>
      <point x="285" y="716"/>
      <point x="222" y="744"/>
      <point x="151" y="775" type="curve"/>
      <point x="106" y="565" type="line"/>
      <point x="151" y="553"/>
      <point x="195" y="541"/>
      <point x="240" y="529" type="curve"/>
      <point x="309" y="505" type="line"/>
      <point x="306" y="489" type="line"/>
      <point x="228" y="467" type="line"/>
      <point x="178" y="456"/>
      <point x="128" y="444"/>
      <point x="78" y="433" type="curve"/>
    </contour>
  </outline>
</glyph>
<glyph name="OE.001" format="2">
  <advance width="1085"/>
  <anchor x="489.648" y="0" name="bottom"/>
  <anchor x="641.201" y="713" name="top"/>
  <outline>
    <contour>
      <point x="373" y="-16" type="curve" smooth="yes"/>
      <point x="591" y="-16"/>
      <point x="710" y="119"/>
      <point x="749" y="315" type="curve"/>
      <point x="787" y="433" type="line"/>
      <point x="787" y="661"/>
      <point x="676" y="729"/>
      <point x="469" y="729" type="curve" smooth="yes"/>
      <point x="222" y="729"/>
      <point x="94" y="603"/>
      <point x="55" y="403" type="curve" smooth="yes"/>
      <point x="12" y="185"/>
      <point x="117" y="-16"/>
    </contour>
    <contour>
      <point x="404" y="182" type="curve"/>
      <point x="324" y="194"/>
      <point x="282" y="272"/>
      <point x="304" y="373" type="curve" smooth="yes"/>
      <point x="324" y="466"/>
      <point x="378" y="521"/>
      <point x="453" y="531" type="curve"/>
      <point x="539" y="519"/>
      <point x="571" y="437"/>
      <point x="550" y="340" type="curve" smooth="yes"/>
      <point x="529" y="241"/>
      <point x="475" y="190"/>
    </contour>
    <contour>
      <point x="461" y="0" type="curve"/>
      <point x="737" y="0" type="line"/>
      <point x="746" y="40" type="line"/>
      <point x="755" y="114"/>
      <point x="763" y="178"/>
      <point x="775" y="269" type="curve"/>
      <point x="809" y="434" type="line"/>
      <point x="837" y="529"/>
      <point x="856" y="596"/>
      <point x="879" y="673" type="curve"/>
      <point x="887" y="713" type="line"/>
      <point x="611" y="713" type="line"/>
      <point x="601" y="636"/>
      <point x="593" y="573"/>
      <point x="580" y="474" type="curve"/>
      <point x="528" y="229" type="line"/>
      <point x="501" y="137"/>
      <point x="483" y="74"/>
    </contour>
    <contour>
      <point x="692" y="0" type="line"/>
      <point x="992" y="0" type="line"/>
      <point x="1037" y="211" type="line"/>
      <point x="976" y="205"/>
      <point x="912" y="199"/>
      <point x="840" y="193" type="curve"/>
      <point x="733" y="193" type="line"/>
    </contour>
    <contour>
      <point x="718" y="271" type="line"/>
      <point x="840" y="271" type="line"/>
      <point x="918" y="266"/>
      <point x="972" y="263"/>
      <point x="1029" y="260" type="curve"/>
      <point x="1070" y="455" type="line"/>
      <point x="1014" y="452"/>
      <point x="959" y="448"/>
      <point x="876" y="443" type="curve"/>
      <point x="754" y="443" type="line"/>
    </contour>
    <contour>
      <point x="786" y="520" type="line"/>
      <point x="893" y="520" type="line"/>
      <point x="977" y="512"/>
      <point x="1034" y="507"/>
      <point x="1091" y="502" type="curve"/>
      <point x="1135" y="713" type="line"/>
      <point x="826" y="713" type="line"/>
    </contour>
  </outline>
</glyph>
<glyph name="_Q_tail" format="2">
  <advance width="783"/>
  <anchor x="339" y="0" name="_bottom"/>
  <outline>
    <contour>
      <point x="454" y="-185" type="curve"/>
      <point x="720" y="-84" type="line"/>
      <point x="649" y="-37"/>
      <point x="607" y="-9"/>
      <point x="558" y="24" type="curve"/>
      <point x="463" y="118" type="line"/>
      <point x="322" y="-2" type="line"/>
      <point x="378" y="-70" type="line"/>
      <point x="402" y="-106"/>
      <point x="428" y="-145"/>
    </contour>
  </outline>
</glyph>
<glyph name=".notdef" format="2">
  <advance width="605"/>
  <outline>
    <contour>
      <point x="-74" y="-192" type="line"/>
      <point x="491" y="-192" type="line"/>
      <point x="706" y="818" type="line"/>
      <point x="141" y="818" type="line"/>
    </contour>
    <contour>
      <point x="255" y="11" type="curve" smooth="yes"/>
      <point x="317" y="11"/>
      <point x="349" y="41"/>
      <point x="360" y="97" type="curve" smooth="yes"/>
      <point x="370" y="148"/>
      <point x="342" y="199"/>
      <point x="270" y="199" type="curve" smooth="yes"/>
      <point x="201" y="199"/>
      <point x="177" y="170"/>
      <point x="168" y="125" type="curve" smooth="yes"/>
      <point x="156" y="65"/>
      <point x="187" y="11"/>
    </contour>
    <contour>
      <point x="23" y="-112" type="line"/>
      <point x="204" y="738" type="line"/>
      <point x="609" y="738" type="line"/>
      <point x="428" y="-112" type="line"/>
    </contour>
    <contour>
      <point x="304" y="230" type="curve" smooth="yes"/>
      <point x="318" y="230"/>
      <point x="367" y="238"/>
      <point x="396" y="243" type="curve"/>
      <point x="408" y="318" type="line"/>
      <point x="392" y="313"/>
      <point x="374" y="308"/>
      <point x="371" y="308" type="curve"/>
      <point x="364" y="309"/>
      <point x="355" y="310"/>
      <point x="358" y="320" type="curve"/>
      <point x="360" y="331"/>
      <point x="381" y="343"/>
      <point x="408" y="355" type="curve" smooth="yes"/>
      <point x="455" y="376"/>
      <point x="506" y="402"/>
      <point x="522" y="478" type="curve" smooth="yes"/>
      <point x="543" y="576"/>
      <point x="476" y="631"/>
      <point x="362" y="631" type="curve" smooth="yes"/>
      <point x="337" y="631"/>
      <point x="260" y="615"/>
      <point x="211" y="606" type="curve"/>
      <point x="187" y="454" type="line"/>
      <point x="239" y="471"/>
      <point x="294" y="488"/>
      <point x="310" y="488" type="curve"/>
      <point x="341" y="487"/>
      <point x="350" y="478"/>
      <point x="347" y="463" type="curve"/>
      <point x="343" y="446"/>
      <point x="322" y="434"/>
      <point x="295" y="418" type="curve" smooth="yes"/>
      <point x="251" y="392"/>
      <point x="211" y="368"/>
      <point x="201" y="319" type="curve" smooth="yes"/>
      <point x="191" y="272"/>
      <point x="220" y="230"/>
    </contour>
  </outline>
</glyph>
<glyph name="_question" format="2">
  <advance width="465"/>
  <outline>
    <contour>
      <point x="235" y="248" type="curve" smooth="yes"/>
      <point x="252" y="248"/>
      <point x="314" y="258"/>
      <point x="350" y="264" type="curve"/>
      <point x="364" y="358" type="line"/>
      <point x="344" y="351"/>
      <point x="323" y="345"/>
      <point x="319" y="345" type="curve"/>
      <point x="310" y="346"/>
      <point x="299" y="348"/>
      <point x="302" y="360" type="curve"/>
      <point x="305" y="374"/>
      <point x="331" y="389"/>
      <point x="366" y="405" type="curve" smooth="yes"/>
      <point x="424" y="431"/>
      <point x="487" y="463"/>
      <point x="508" y="557" type="curve" smooth="yes"/>
      <point x="535" y="680"/>
      <point x="450" y="749"/>
      <point x="308" y="749" type="curve" smooth="yes"/>
      <point x="276" y="749"/>
      <point x="179" y="729"/>
      <point x="118" y="717" type="curve"/>
      <point x="88" y="528" type="line"/>
      <point x="153" y="549"/>
      <point x="221" y="570"/>
      <point x="243" y="570" type="curve"/>
      <point x="281" y="569"/>
      <point x="293" y="557"/>
      <point x="289" y="539" type="curve"/>
      <point x="284" y="518"/>
      <point x="257" y="502"/>
      <point x="224" y="483" type="curve" smooth="yes"/>
      <point x="169" y="451"/>
      <point x="119" y="420"/>
      <point x="106" y="359" type="curve" smooth="yes"/>
      <point x="94" y="300"/>
      <point x="130" y="248"/>
    </contour>
  </outline>
</glyph>
<glyph name="_slash.Lslash" format="2">
  <advance width="609"/>
  <anchor x="319" y="357" name="_center"/>
  <outline>
    <contour>
      <point x="24" y="215" type="line"/>
      <point x="101" y="239"/>
      <point x="175" y="262"/>
      <point x="239" y="282" type="curve"/>
      <point x="296" y="297" type="line"/>
      <point x="358" y="312"/>
      <point x="438" y="331"/>
      <point x="513" y="349" type="curve"/>
      <point x="497" y="534" type="line"/>
      <point x="421" y="510"/>
      <point x="346" y="486"/>
      <point x="283" y="466" type="curve"/>
      <point x="224" y="450" type="line"/>
      <point x="160" y="435"/>
      <point x="85" y="417"/>
      <point x="8" y="399" type="curve"/>
    </contour>
  </outline>
</glyph>
<glyph name="_strokeshortcomb.Eth" format="2">
  <advance width="735"/>
  <anchor x="390.531" y="357" name="_center"/>
  <outline>
    <contour>
      <point x="-13" y="266" type="line"/>
      <point x="51" y="270"/>
      <point x="113" y="273"/>
      <point x="165" y="276" type="curve"/>
      <point x="213" y="276" type="line"/>
      <point x="266" y="273"/>
      <point x="325" y="269"/>
      <point x="387" y="266" type="curve"/>
      <point x="425" y="447" type="line"/>
      <point x="363" y="444"/>
      <point x="301" y="440"/>
      <point x="247" y="437" type="curve"/>
      <point x="199" y="437" type="line"/>
      <point x="147" y="440"/>
      <point x="88" y="443"/>
      <point x="25" y="447" type="curve"/>
    </contour>
  </outline>
</glyph>
<glyph name="acutecomb.case" format="2">
  <anchor x="353" y="502" name="_top"/>
  <anchor x="405" y="749" name="top"/>
  <outline>
    <contour>
      <point x="247" y="553" type="curve"/>
      <point x="397" y="555" type="line"/>
      <point x="475" y="618"/>
      <point x="579" y="705"/>
      <point x="622" y="756" type="curve"/>
      <point x="370" y="751" type="line"/>
      <point x="329" y="686"/>
      <point x="289" y="620"/>
    </contour>
  </outline>
</glyph>
<glyph name="brevecomb.narrow" format="2">
  <anchor x="353" y="502" name="_top"/>
  <anchor x="398" y="719" name="top"/>
  <outline>
    <contour>
      <point x="379" y="538" type="curve" smooth="yes"/>
      <point x="511" y="538"/>
      <point x="566" y="604"/>
      <point x="599" y="761" type="curve"/>
      <point x="454" y="761" type="line"/>
      <point x="447" y="716"/>
      <point x="432" y="686"/>
      <point x="394" y="680" type="curve"/>
      <point x="358" y="686"/>
      <point x="351" y="712"/>
      <point x="361" y="768" type="curve"/>
      <point x="213" y="761" type="line"/>
      <point x="181" y="609"/>
      <point x="249" y="538"/>
    </contour>
  </outline>
</glyph>
<glyph name="brevecomb_acutecomb.case" format="2">
  <anchor x="350.791" y="502" name="_top"/>
  <outline>
    <contour>
      <point x="380" y="538" type="curve" smooth="yes"/>
      <point x="524" y="538"/>
      <point x="583" y="598"/>
      <point x="608" y="722" type="curve"/>
      <point x="466" y="722" type="line"/>
      <point x="464" y="701"/>
      <point x="443" y="673"/>
      <point x="390" y="668" type="curve"/>
      <point x="339" y="673"/>
      <point x="324" y="697"/>
      <point x="330" y="728" type="curve"/>
      <point x="185" y="722" type="line"/>
      <point x="161" y="603"/>
      <point x="238" y="538"/>
    </contour>
    <contour>
      <point x="311" y="744" type="curve"/>
      <point x="444" y="745" type="line"/>
      <point x="508" y="806"/>
      <point x="592" y="889"/>
      <point x="628" y="937" type="curve"/>
      <point x="412" y="933" type="line"/>
      <point x="378" y="871"/>
      <point x="346" y="808"/>
    </contour>
  </outline>
</glyph>
<glyph name="brevecomb_gravecomb.case" format="2">
  <anchor x="350.791" y="502" name="_top"/>
  <outline>
    <contour>
      <point x="380" y="538" type="curve" smooth="yes"/>
      <point x="524" y="538"/>
      <point x="583" y="598"/>
      <point x="608" y="722" type="curve"/>
      <point x="466" y="722" type="line"/>
      <point x="464" y="701"/>
      <point x="443" y="673"/>
      <point x="390" y="668" type="curve"/>
      <point x="339" y="673"/>
      <point x="324" y="697"/>
      <point x="330" y="728" type="curve"/>
      <point x="185" y="722" type="line"/>
      <point x="161" y="603"/>
      <point x="238" y="538"/>
    </contour>
    <contour>
      <point x="379" y="744" type="curve"/>
      <point x="505" y="745" type="line"/>
      <point x="492" y="810"/>
      <point x="479" y="873"/>
      <point x="466" y="937" type="curve"/>
      <point x="268" y="933" type="line"/>
      <point x="286" y="885"/>
      <point x="339" y="804"/>
    </contour>
  </outline>
</glyph>
<glyph name="brevecomb_hookabovecomb.case" format="2">
  <anchor x="350.791" y="502" name="_top"/>
  <outline>
    <contour>
      <point x="380" y="538" type="curve" smooth="yes"/>
      <point x="524" y="538"/>
      <point x="583" y="598"/>
      <point x="608" y="722" type="curve"/>
      <point x="466" y="722" type="line"/>
      <point x="464" y="701"/>
      <point x="443" y="673"/>
      <point x="390" y="668" type="curve"/>
      <point x="339" y="673"/>
      <point x="324" y="697"/>
      <point x="330" y="728" type="curve"/>
      <point x="185" y="722" type="line"/>
      <point x="161" y="603"/>
      <point x="238" y="538"/>
    </contour>
    <contour>
      <point x="334" y="740" type="line"/>
      <point x="438" y="740" type="line"/>
      <point x="440" y="750" type="line"/>
      <point x="518" y="755"/>
      <point x="570" y="788"/>
      <point x="582" y="846" type="curve" smooth="yes"/>
      <point x="598" y="925"/>
      <point x="516" y="955"/>
      <point x="443" y="955" type="curve" smooth="yes"/>
      <point x="428" y="955"/>
      <point x="342" y="941"/>
      <point x="312" y="936" type="curve"/>
      <point x="296" y="822" type="line"/>
      <point x="342" y="835"/>
      <point x="396" y="851"/>
      <point x="404" y="851" type="curve"/>
      <point x="423" y="849"/>
      <point x="435" y="839"/>
      <point x="432" y="826" type="curve" smooth="yes"/>
      <point x="427" y="806"/>
      <point x="388" y="791"/>
      <point x="344" y="787" type="curve"/>
    </contour>
  </outline>
</glyph>
<glyph name="brevecomb_tildecomb" format="2">
  <anchor x="350.791" y="502" name="_top"/>
  <outline>
    <contour>
      <point x="380" y="538" type="curve" smooth="yes"/>
      <point x="524" y="538"/>
      <point x="583" y="598"/>
      <point x="611" y="742" type="curve"/>
      <point x="469" y="742" type="line"/>
      <point x="464" y="701"/>
      <point x="443" y="673"/>
      <point x="390" y="668" type="curve"/>
      <point x="339" y="673"/>
      <point x="324" y="697"/>
      <point x="333" y="748" type="curve"/>
      <point x="188" y="742" type="line"/>
      <point x="161" y="603"/>
      <point x="238" y="538"/>
    </contour>
    <contour>
      <point x="499" y="770" type="curve" smooth="yes"/>
      <point x="565" y="770"/>
      <point x="617" y="832"/>
      <point x="637" y="942" type="curve"/>
      <point x="539" y="942" type="line"/>
      <point x="528" y="925"/>
      <point x="512" y="904"/>
      <point x="498" y="902" type="curve"/>
      <point x="478" y="905"/>
      <point x="427" y="961"/>
      <point x="360" y="961" type="curve" smooth="yes"/>
      <point x="290" y="961"/>
      <point x="234" y="899"/>
      <point x="214" y="789" type="curve"/>
      <point x="311" y="789" type="line"/>
      <point x="322" y="804"/>
      <point x="342" y="827"/>
      <point x="357" y="829" type="curve"/>
      <point x="381" y="826"/>
      <point x="426" y="770"/>
    </contour>
  </outline>
</glyph>
<glyph name="caroncomb.alt" format="2">
  <anchor x="353" y="502" name="_topright"/>
  <outline>
    <contour>
      <point x="397" y="547" type="curve"/>
      <point x="489" y="549" type="line"/>
      <point x="533" y="593"/>
      <point x="617" y="682"/>
      <point x="624" y="712" type="curve" smooth="yes"/>
      <point x="635" y="760"/>
      <point x="604" y="796"/>
      <point x="563" y="804" type="curve"/>
      <point x="460" y="795" type="line"/>
      <point x="455" y="758"/>
      <point x="449" y="721"/>
      <point x="443" y="684" type="curve"/>
      <point x="428" y="638"/>
      <point x="413" y="592"/>
    </contour>
  </outline>
</glyph>
<glyph name="cent.BRACKET.140" format="2">
  <advance width="474"/>
  <anchor x="221" y="0" name="bottom"/>
  <anchor x="327" y="502" name="top"/>
  <outline>
    <contour>
      <point x="112" y="-137" type="curve"/>
      <point x="286" y="-137" type="line"/>
      <point x="300" y="-56"/>
      <point x="314" y="23"/>
      <point x="327" y="99" type="curve"/>
      <point x="171" y="99" type="line"/>
      <point x="152" y="23"/>
      <point x="132" y="-56"/>
    </contour>
    <contour>
      <point x="236" y="413" type="curve"/>
      <point x="395" y="413" type="line"/>
      <point x="412" y="483"/>
      <point x="429" y="552"/>
      <point x="448" y="628" type="curve"/>
      <point x="274" y="628" type="line"/>
      <point x="261" y="553"/>
      <point x="248" y="482"/>
    </contour>
    <contour>
      <point x="290" y="-13" type="curve" smooth="yes"/>
      <point x="317" y="-13"/>
      <point x="374" y="-2"/>
      <point x="401" y="6" type="curve"/>
      <point x="432" y="194" type="line"/>
      <point x="402" y="183"/>
      <point x="347" y="166"/>
      <point x="336" y="166" type="curve"/>
      <point x="274" y="168"/>
      <point x="232" y="201"/>
      <point x="247" y="266" type="curve" smooth="yes"/>
      <point x="258" y="310"/>
      <point x="286" y="328"/>
      <point x="327" y="333" type="curve"/>
      <point x="337" y="333"/>
      <point x="397" y="315"/>
      <point x="450" y="294" type="curve"/>
      <point x="503" y="482" type="line"/>
      <point x="440" y="501"/>
      <point x="354" y="517"/>
      <point x="326" y="517" type="curve" smooth="yes"/>
      <point x="154" y="517"/>
      <point x="54" y="425"/>
      <point x="24" y="284" type="curve" smooth="yes"/>
      <point x="-15" y="100"/>
      <point x="97" y="-13"/>
    </contour>
  </outline>
</glyph>
<glyph name="circumflexcomb.narrow" format="2">
  <anchor x="353" y="502" name="_top"/>
  <anchor x="406" y="755" name="top"/>
  <outline>
    <contour>
      <point x="438" y="553" type="curve"/>
      <point x="558" y="555" type="line"/>
      <point x="542" y="628"/>
      <point x="526" y="701"/>
      <point x="510" y="774" type="curve"/>
      <point x="313" y="774" type="line"/>
      <point x="333" y="718"/>
      <point x="393" y="623"/>
    </contour>
    <contour>
      <point x="169" y="554" type="curve"/>
      <point x="300" y="554" type="line"/>
      <point x="364" y="623"/>
      <point x="450" y="719"/>
      <point x="485" y="774" type="curve"/>
      <point x="288" y="774" type="line"/>
      <point x="249" y="702"/>
      <point x="209" y="628"/>
    </contour>
  </outline>
</glyph>
<glyph name="circumflexcomb_acutecomb.case" format="2">
  <anchor x="353" y="502" name="_top"/>
  <outline>
    <contour>
      <point x="542" y="704" type="curve"/>
      <point x="675" y="705" type="line"/>
      <point x="739" y="766"/>
      <point x="823" y="849"/>
      <point x="859" y="897" type="curve"/>
      <point x="643" y="893" type="line"/>
      <point x="609" y="831"/>
      <point x="577" y="768"/>
    </contour>
    <contour>
      <point x="162" y="554" type="curve"/>
      <point x="298" y="554" type="line"/>
      <point x="363" y="614"/>
      <point x="450" y="697"/>
      <point x="486" y="745" type="curve"/>
      <point x="282" y="745" type="line"/>
      <point x="242" y="681"/>
      <point x="203" y="619"/>
    </contour>
    <contour>
      <point x="440" y="553" type="curve"/>
      <point x="565" y="555" type="line"/>
      <point x="548" y="618"/>
      <point x="529" y="681"/>
      <point x="513" y="745" type="curve"/>
      <point x="307" y="745" type="line"/>
      <point x="329" y="697"/>
      <point x="393" y="614"/>
    </contour>
  </outline>
</glyph>
<glyph name="circumflexcomb_gravecomb.case" format="2">
  <anchor x="353" y="502" name="_top"/>
  <outline>
    <contour>
      <point x="567" y="704" type="curve"/>
      <point x="697" y="705" type="line"/>
      <point x="678" y="771"/>
      <point x="663" y="833"/>
      <point x="654" y="897" type="curve"/>
      <point x="456" y="893" type="line"/>
      <point x="483" y="827"/>
      <point x="522" y="764"/>
    </contour>
    <contour>
      <point x="162" y="554" type="curve"/>
      <point x="298" y="554" type="line"/>
      <point x="363" y="614"/>
      <point x="450" y="697"/>
      <point x="486" y="745" type="curve"/>
      <point x="282" y="745" type="line"/>
      <point x="242" y="681"/>
      <point x="203" y="619"/>
    </contour>
    <contour>
      <point x="440" y="553" type="curve"/>
      <point x="565" y="555" type="line"/>
      <point x="548" y="618"/>
      <point x="529" y="681"/>
      <point x="513" y="745" type="curve"/>
      <point x="307" y="745" type="line"/>
      <point x="329" y="697"/>
      <point x="393" y="614"/>
    </contour>
  </outline>
</glyph>
<glyph name="circumflexcomb_hookabovecomb" format="2">
  <anchor x="353" y="502" name="_top"/>
  <outline>
    <contour>
      <point x="440" y="553" type="curve"/>
      <point x="565" y="555" type="line"/>
      <point x="549" y="625"/>
      <point x="532" y="694"/>
      <point x="517" y="764" type="curve"/>
      <point x="311" y="764" type="line"/>
      <point x="332" y="711"/>
      <point x="394" y="620"/>
    </contour>
    <contour>
      <point x="162" y="554" type="curve"/>
      <point x="298" y="554" type="line"/>
      <point x="364" y="620"/>
      <point x="453" y="711"/>
      <point x="490" y="764" type="curve"/>
      <point x="286" y="764" type="line"/>
      <point x="245" y="694"/>
      <point x="204" y="626"/>
    </contour>
    <contour>
      <point x="539" y="714" type="line"/>
      <point x="643" y="714" type="line"/>
      <point x="645" y="724" type="line"/>
      <point x="724" y="739"/>
      <point x="776" y="772"/>
      <point x="788" y="830" type="curve" smooth="yes"/>
      <point x="804" y="909"/>
      <point x="722" y="939"/>
      <point x="649" y="939" type="curve" smooth="yes"/>
      <point x="634" y="939"/>
      <point x="548" y="925"/>
      <point x="518" y="920" type="curve"/>
      <point x="502" y="806" type="line"/>
      <point x="548" y="819"/>
      <point x="602" y="835"/>
      <point x="610" y="835" type="curve"/>
      <point x="629" y="833"/>
      <point x="641" y="823"/>
      <point x="638" y="810" type="curve" smooth="yes"/>
      <point x="633" y="790"/>
      <point x="594" y="775"/>
      <point x="549" y="761" type="curve"/>
    </contour>
  </outline>
</glyph>
<glyph name="circumflexcomb_tildecomb.case" format="2">
  <anchor x="353" y="502" name="_top"/>
  <outline>
    <contour>
      <point x="162" y="554" type="curve"/>
      <point x="298" y="554" type="line"/>
      <point x="363" y="614"/>
      <point x="450" y="697"/>
      <point x="486" y="745" type="curve"/>
      <point x="282" y="745" type="line"/>
      <point x="242" y="681"/>
      <point x="203" y="619"/>
    </contour>
    <contour>
      <point x="440" y="553" type="curve"/>
      <point x="565" y="555" type="line"/>
      <point x="548" y="618"/>
      <point x="529" y="681"/>
      <point x="513" y="745" type="curve"/>
      <point x="307" y="745" type="line"/>
      <point x="329" y="697"/>
      <point x="393" y="614"/>
    </contour>
    <contour>
      <point x="497" y="760" type="curve" smooth="yes"/>
      <point x="563" y="760"/>
      <point x="615" y="822"/>
      <point x="635" y="932" type="curve"/>
      <point x="537" y="932" type="line"/>
      <point x="526" y="915"/>
      <point x="510" y="894"/>
      <point x="496" y="892" type="curve"/>
      <point x="476" y="895"/>
      <point x="425" y="951"/>
      <point x="358" y="951" type="curve" smooth="yes"/>
      <point x="288" y="951"/>
      <point x="232" y="889"/>
      <point x="212" y="779" type="curve"/>
      <point x="309" y="779" type="line"/>
      <point x="320" y="794"/>
      <point x="340" y="817"/>
      <point x="355" y="819" type="curve"/>
      <point x="379" y="816"/>
      <point x="424" y="760"/>
    </contour>
  </outline>
</glyph>
<glyph name="circumflexcomb_tildecomb" format="2">
  <anchor x="353" y="502" name="_top"/>
  <outline>
    <contour>
      <point x="499" y="770" type="curve" smooth="yes"/>
      <point x="565" y="770"/>
      <point x="617" y="832"/>
      <point x="637" y="942" type="curve"/>
      <point x="539" y="942" type="line"/>
      <point x="528" y="925"/>
      <point x="512" y="904"/>
      <point x="498" y="902" type="curve"/>
      <point x="478" y="905"/>
      <point x="427" y="961"/>
      <point x="360" y="961" type="curve" smooth="yes"/>
      <point x="290" y="961"/>
      <point x="234" y="899"/>
      <point x="214" y="789" type="curve"/>
      <point x="311" y="789" type="line"/>
      <point x="322" y="804"/>
      <point x="342" y="827"/>
      <point x="357" y="829" type="curve"/>
      <point x="381" y="826"/>
      <point x="426" y="770"/>
    </contour>
    <contour>
      <point x="162" y="554" type="curve"/>
      <point x="298" y="554" type="line"/>
      <point x="364" y="614"/>
      <point x="453" y="696"/>
      <point x="490" y="744" type="curve"/>
      <point x="286" y="744" type="line"/>
      <point x="245" y="681"/>
      <point x="204" y="619"/>
    </contour>
    <contour>
      <point x="440" y="553" type="curve"/>
      <point x="565" y="555" type="line"/>
      <point x="549" y="618"/>
      <point x="533" y="681"/>
      <point x="517" y="744" type="curve"/>
      <point x="311" y="744" type="line"/>
      <point x="333" y="696"/>
      <point x="394" y="614"/>
    </contour>
  </outline>
</glyph>
<glyph name="colonsign.BRACKET.140" format="2">
  <advance width="652"/>
  <outline>
    <contour>
      <point x="366" y="-15" type="curve" smooth="yes"/>
      <point x="398" y="-15"/>
      <point x="510" y="1"/>
      <point x="561" y="15" type="curve"/>
      <point x="599" y="240" type="line"/>
      <point x="537" y="213"/>
      <point x="437" y="174"/>
      <point x="414" y="174" type="curve"/>
      <point x="304" y="178"/>
      <point x="270" y="265"/>
      <point x="289" y="358" type="curve" smooth="yes"/>
      <point x="312" y="468"/>
      <point x="382" y="506"/>
      <point x="453" y="510" type="curve"/>
      <point x="468" y="510"/>
      <point x="558" y="477"/>
      <point x="636" y="441" type="curve"/>
      <point x="698" y="654" type="line"/>
      <point x="613" y="682"/>
      <point x="495" y="706"/>
      <point x="457" y="706" type="curve" smooth="yes"/>
      <point x="222" y="706"/>
      <point x="94" y="591"/>
      <point x="52" y="387" type="curve" smooth="yes"/>
      <point x="6" y="167"/>
      <point x="120" y="-15"/>
    </contour>
    <contour>
      <point x="45" y="-137" type="curve"/>
      <point x="204" y="-137" type="line"/>
      <point x="239" y="-38"/>
      <point x="278" y="73"/>
      <point x="301" y="139" type="curve"/>
      <point x="157" y="139" type="line"/>
      <point x="130" y="72"/>
      <point x="87" y="-34"/>
    </contour>
    <contour>
      <point x="233" y="-137" type="curve"/>
      <point x="392" y="-137" type="line"/>
      <point x="418" y="-59"/>
      <point x="447" y="28"/>
      <point x="469" y="93" type="curve"/>
      <point x="326" y="93" type="line"/>
      <point x="299" y="27"/>
      <point x="265" y="-58"/>
    </contour>
    <contour>
      <point x="300" y="604" type="curve"/>
      <point x="446" y="604" type="line"/>
      <point x="470" y="664"/>
      <point x="498" y="735"/>
      <point x="525" y="803" type="curve"/>
      <point x="367" y="803" type="line"/>
      <point x="344" y="735"/>
      <point x="320" y="664"/>
    </contour>
    <contour>
      <point x="471" y="560" type="curve"/>
      <point x="614" y="560" type="line"/>
      <point x="642" y="628"/>
      <point x="679" y="718"/>
      <point x="714" y="803" type="curve"/>
      <point x="557" y="803" type="line"/>
      <point x="527" y="718"/>
      <point x="495" y="628"/>
    </contour>
  </outline>
</glyph>
<glyph name="dollar.BRACKET.140" format="2">
  <advance width="588"/>
  <outline>
    <contour>
      <point x="262" y="-15" type="curve" smooth="yes"/>
      <point x="445" y="-15"/>
      <point x="525" y="38"/>
      <point x="555" y="179" type="curve" smooth="yes"/>
      <point x="579" y="292"/>
      <point x="536" y="351"/>
      <point x="397" y="408" type="curve" smooth="yes"/>
      <point x="338" y="432"/>
      <point x="315" y="457"/>
      <point x="320" y="482" type="curve" smooth="yes"/>
      <point x="325" y="505"/>
      <point x="347" y="515"/>
      <point x="379" y="515" type="curve" smooth="yes"/>
      <point x="395" y="515"/>
      <point x="480" y="485"/>
      <point x="560" y="451" type="curve"/>
      <point x="619" y="644" type="line"/>
      <point x="536" y="667"/>
      <point x="412" y="700"/>
      <point x="347" y="700" type="curve" smooth="yes"/>
      <point x="183" y="700"/>
      <point x="105" y="640"/>
      <point x="78" y="509" type="curve" smooth="yes"/>
      <point x="51" y="378"/>
      <point x="114" y="317"/>
      <point x="219" y="275" type="curve" smooth="yes"/>
      <point x="282" y="250"/>
      <point x="318" y="227"/>
      <point x="313" y="201" type="curve" smooth="yes"/>
      <point x="308" y="178"/>
      <point x="296" y="166"/>
      <point x="252" y="166" type="curve" smooth="yes"/>
      <point x="235" y="166"/>
      <point x="139" y="200"/>
      <point x="48" y="238" type="curve"/>
      <point x="-10" y="37" type="line"/>
      <point x="88" y="11"/>
      <point x="210" y="-15"/>
    </contour>
    <contour>
      <point x="129" y="-137" type="curve"/>
      <point x="312" y="-137" type="line"/>
      <point x="326" y="-58"/>
      <point x="341" y="27"/>
      <point x="352" y="93" type="curve"/>
      <point x="186" y="93" type="line"/>
      <point x="170" y="28"/>
      <point x="149" y="-57"/>
    </contour>
    <contour>
      <point x="294" y="604" type="curve"/>
      <point x="462" y="604" type="line"/>
      <point x="476" y="662"/>
      <point x="494" y="735"/>
      <point x="511" y="803" type="curve"/>
      <point x="329" y="803" type="line"/>
      <point x="317" y="735"/>
      <point x="305" y="664"/>
    </contour>
  </outline>
</glyph>
<glyph name="five.dnom" format="2">
  <advance width="442"/>
  <outline>
    <contour>
      <point x="165" y="-16" type="curve" smooth="yes"/>
      <point x="312" y="-16"/>
      <point x="373" y="37"/>
      <point x="392" y="125" type="curve" smooth="yes"/>
      <point x="413" y="221"/>
      <point x="351" y="288"/>
      <point x="276" y="288" type="curve" smooth="yes"/>
      <point x="263" y="288"/>
      <point x="235" y="283"/>
      <point x="212" y="274" type="curve"/>
      <point x="200" y="274" type="line"/>
      <point x="204" y="291" type="line"/>
      <point x="212" y="315"/>
      <point x="222" y="344"/>
      <point x="233" y="374" type="curve"/>
      <point x="171" y="324" type="line"/>
      <point x="243" y="324" type="line"/>
      <point x="295" y="319"/>
      <point x="358" y="313"/>
      <point x="410" y="308" type="curve"/>
      <point x="442" y="462" type="line"/>
      <point x="82" y="462" type="line"/>
      <point x="73" y="403"/>
      <point x="64" y="340"/>
      <point x="53" y="270" type="curve"/>
      <point x="35" y="187" type="line"/>
      <point x="104" y="174" type="line"/>
      <point x="119" y="182"/>
      <point x="147" y="192"/>
      <point x="167" y="192" type="curve"/>
      <point x="209" y="190"/>
      <point x="222" y="171"/>
      <point x="218" y="152" type="curve" smooth="yes"/>
      <point x="214" y="132"/>
      <point x="191" y="124"/>
      <point x="157" y="122" type="curve"/>
      <point x="147" y="122"/>
      <point x="62" y="150"/>
      <point x="15" y="166" type="curve"/>
      <point x="-25" y="18" type="line"/>
      <point x="25" y="8"/>
      <point x="136" y="-16"/>
    </contour>
  </outline>
</glyph>
<glyph name="gravecomb.case" format="2">
  <anchor x="353" y="502" name="_top"/>
  <anchor x="405" y="749" name="top"/>
  <outline>
    <contour>
      <point x="335" y="553" type="curve"/>
      <point x="480" y="555" type="line"/>
      <point x="464" y="622"/>
      <point x="448" y="688"/>
      <point x="432" y="756" type="curve"/>
      <point x="197" y="751" type="line"/>
      <point x="219" y="701"/>
      <point x="285" y="616"/>
    </contour>
  </outline>
</glyph>
<glyph name="guarani.BRACKET.140" format="2">
  <advance width="693"/>
  <outline>
    <contour>
      <point x="381" y="-14" type="curve" smooth="yes"/>
      <point x="435" y="-14"/>
      <point x="537" y="3"/>
      <point x="604" y="12" type="curve"/>
      <point x="609" y="222" type="line"/>
      <point x="537" y="200"/>
      <point x="428" y="169"/>
      <point x="400" y="169" type="curve"/>
      <point x="302" y="172"/>
      <point x="269" y="266"/>
      <point x="289" y="362" type="curve" smooth="yes"/>
      <point x="314" y="479"/>
      <point x="389" y="507"/>
      <point x="452" y="510" type="curve"/>
      <point x="469" y="510"/>
      <point x="570" y="477"/>
      <point x="658" y="441" type="curve"/>
      <point x="722" y="655" type="line"/>
      <point x="625" y="682"/>
      <point x="490" y="706"/>
      <point x="447" y="706" type="curve" smooth="yes"/>
      <point x="232" y="706"/>
      <point x="99" y="605"/>
      <point x="53" y="390" type="curve" smooth="yes"/>
      <point x="7" y="176"/>
      <point x="107" y="-14"/>
    </contour>
    <contour>
      <point x="367" y="12" type="curve"/>
      <point x="604" y="12" type="line"/>
      <point x="616" y="87"/>
      <point x="625" y="142"/>
      <point x="634" y="199" type="curve"/>
      <point x="655" y="265"/>
      <point x="669" y="310"/>
      <point x="687" y="366" type="curve"/>
      <point x="432" y="366" type="line"/>
      <point x="426" y="306"/>
      <point x="422" y="267"/>
      <point x="415" y="199" type="curve"/>
      <point x="401" y="144"/>
      <point x="385" y="83"/>
    </contour>
    <contour>
      <point x="213" y="-137" type="curve"/>
      <point x="396" y="-137" type="line"/>
      <point x="410" y="-58"/>
      <point x="425" y="27"/>
      <point x="436" y="93" type="curve"/>
      <point x="270" y="93" type="line"/>
      <point x="254" y="28"/>
      <point x="233" y="-57"/>
    </contour>
    <contour>
      <point x="378" y="604" type="curve"/>
      <point x="546" y="604" type="line"/>
      <point x="560" y="662"/>
      <point x="578" y="735"/>
      <point x="595" y="803" type="curve"/>
      <point x="413" y="803" type="line"/>
      <point x="401" y="735"/>
      <point x="389" y="664"/>
    </contour>
  </outline>
</glyph>
<glyph name="macroncomb.case" format="2">
  <anchor x="353" y="502" name="_top"/>
  <anchor x="398" y="717" name="top"/>
  <outline>
    <contour>
      <point x="178" y="555" type="line"/>
      <point x="234" y="557"/>
      <point x="301" y="560"/>
      <point x="366" y="563" type="curve"/>
      <point x="430" y="560"/>
      <point x="494" y="557"/>
      <point x="550" y="555" type="curve"/>
      <point x="587" y="731" type="line"/>
      <point x="531" y="729"/>
      <point x="465" y="726"/>
      <point x="399" y="723" type="curve"/>
      <point x="336" y="726"/>
      <point x="269" y="729"/>
      <point x="215" y="731" type="curve"/>
    </contour>
  </outline>
</glyph>
<glyph name="macroncomb.narrow" format="2">
  <anchor x="353" y="502" name="_top"/>
  <anchor x="398" y="717" name="top"/>
  <outline>
    <contour>
      <point x="209" y="555" type="line"/>
      <point x="253" y="557"/>
      <point x="312" y="560"/>
      <point x="366" y="563" type="curve"/>
      <point x="421" y="560"/>
      <point x="476" y="557"/>
      <point x="521" y="555" type="curve"/>
      <point x="558" y="731" type="line"/>
      <point x="513" y="729"/>
      <point x="456" y="726"/>
      <point x="400" y="723" type="curve"/>
      <point x="347" y="726"/>
      <point x="290" y="729"/>
      <point x="246" y="731" type="curve"/>
    </contour>
  </outline>
</glyph>
<glyph name="naira.BRACKET.140" format="2">
  <advance width="854"/>
  <outline>
    <contour>
      <point x="45" y="0" type="curve"/>
      <point x="300" y="0" type="line"/>
      <point x="309" y="71"/>
      <point x="319" y="145"/>
      <point x="330" y="231" type="curve"/>
      <point x="347" y="313" type="line"/>
      <point x="362" y="313" type="line"/>
      <point x="410" y="191" type="line"/>
      <point x="432" y="118"/>
      <point x="450" y="56"/>
      <point x="467" y="0" type="curve"/>
      <point x="703" y="0" type="line"/>
      <point x="712" y="71"/>
      <point x="720" y="133"/>
      <point x="731" y="218" type="curve"/>
      <point x="783" y="463" type="line"/>
      <point x="809" y="552"/>
      <point x="828" y="618"/>
      <point x="849" y="690" type="curve"/>
      <point x="594" y="690" type="line"/>
      <point x="584" y="615"/>
      <point x="574" y="542"/>
      <point x="560" y="442" type="curve"/>
      <point x="545" y="371" type="line"/>
      <point x="529" y="371" type="line"/>
      <point x="482" y="497" type="line"/>
      <point x="465" y="558"/>
      <point x="447" y="622"/>
      <point x="428" y="690" type="curve"/>
      <point x="191" y="690" type="line"/>
      <point x="181" y="615"/>
      <point x="173" y="552"/>
      <point x="161" y="461" type="curve"/>
      <point x="109" y="218" type="line"/>
      <point x="84" y="132"/>
      <point x="66" y="71"/>
    </contour>
    <contour>
      <point x="30" y="275" type="line"/>
      <point x="106" y="278"/>
      <point x="181" y="281"/>
      <point x="239" y="283" type="curve"/>
      <point x="271" y="433" type="line"/>
      <point x="214" y="435"/>
      <point x="140" y="438"/>
      <point x="65" y="441" type="curve"/>
    </contour>
    <contour>
      <point x="630" y="283" type="line"/>
      <point x="686" y="281"/>
      <point x="761" y="278"/>
      <point x="834" y="275" type="curve"/>
      <point x="869" y="441" type="line"/>
      <point x="795" y="438"/>
      <point x="719" y="435"/>
      <point x="662" y="433" type="curve"/>
    </contour>
  </outline>
</glyph>
<glyph name="ogonekcomb.a" format="2">
  <anchor x="247" y="0" name="_ogonek"/>
  <outline>
    <contour>
      <point x="168" y="-228" type="curve" smooth="yes"/>
      <point x="181" y="-228"/>
      <point x="206" y="-225"/>
      <point x="235" y="-220" type="curve"/>
      <point x="261" y="-93" type="line"/>
      <point x="249" y="-95"/>
      <point x="236" y="-98"/>
      <point x="226" y="-99" type="curve"/>
      <point x="196" y="-99"/>
      <point x="180" y="-86"/>
      <point x="184" y="-64" type="curve" smooth="yes"/>
      <point x="188" y="-41"/>
      <point x="224" y="-21"/>
      <point x="277" y="0" type="curve"/>
      <point x="241" y="41" type="line"/>
      <point x="127" y="27" type="line"/>
      <point x="118" y="-15" type="line"/>
      <point x="73" y="-33"/>
      <point x="27" y="-61"/>
      <point x="18" y="-109" type="curve" smooth="yes"/>
      <point x="7" y="-169"/>
      <point x="48" y="-228"/>
    </contour>
  </outline>
</glyph>
<glyph name="one.dnom" format="2">
  <advance width="357"/>
  <outline>
    <contour>
      <point x="45" y="231" type="line"/>
      <point x="117" y="261"/>
      <point x="179" y="286"/>
      <point x="236" y="310" type="curve"/>
      <point x="274" y="466" type="line"/>
      <point x="193" y="439"/>
      <point x="117" y="413"/>
      <point x="34" y="385" type="curve"/>
    </contour>
    <contour>
      <point x="70" y="0" type="curve"/>
      <point x="268" y="0" type="line"/>
      <point x="274" y="47"/>
      <point x="279" y="87"/>
      <point x="286" y="143" type="curve"/>
      <point x="318" y="296" type="line"/>
      <point x="333" y="349"/>
      <point x="349" y="405"/>
      <point x="365" y="462" type="curve"/>
      <point x="274" y="466" type="line"/>
      <point x="155" y="394" type="line"/>
      <point x="148" y="345"/>
      <point x="143" y="304"/>
      <point x="137" y="261" type="curve"/>
      <point x="113" y="147" type="line"/>
      <point x="96" y="89"/>
      <point x="84" y="48"/>
    </contour>
  </outline>
</glyph>
<glyph name="seven.dnom" format="2">
  <advance width="432"/>
  <outline>
    <contour>
      <point x="-16" y="0" type="curve"/>
      <point x="207" y="0" type="line"/>
      <point x="233" y="47"/>
      <point x="258" y="92"/>
      <point x="284" y="139" type="curve"/>
      <point x="339" y="221" type="line"/>
      <point x="368" y="261"/>
      <point x="399" y="303"/>
      <point x="429" y="343" type="curve"/>
      <point x="456" y="470" type="line"/>
      <point x="66" y="470" type="line"/>
      <point x="31" y="308" type="line"/>
      <point x="88" y="314"/>
      <point x="138" y="319"/>
      <point x="190" y="324" type="curve"/>
      <point x="277" y="324" type="line"/>
      <point x="226" y="360" type="line"/>
      <point x="211" y="331"/>
      <point x="195" y="303"/>
      <point x="180" y="274" type="curve"/>
      <point x="97" y="153" type="line"/>
      <point x="60" y="102"/>
      <point x="23" y="53"/>
    </contour>
  </outline>
</glyph>
<glyph name="three.dnom" format="2">
  <advance width="444"/>
  <outline>
    <contour>
      <point x="169" y="-15" type="curve" smooth="yes"/>
      <point x="316" y="-15"/>
      <point x="375" y="26"/>
      <point x="392" y="110" type="curve" smooth="yes"/>
      <point x="408" y="187"/>
      <point x="360" y="224"/>
      <point x="317" y="237" type="curve"/>
      <point x="319" y="248" type="line"/>
      <point x="369" y="257"/>
      <point x="413" y="275"/>
      <point x="425" y="329" type="curve" smooth="yes"/>
      <point x="442" y="407"/>
      <point x="373" y="477"/>
      <point x="242" y="477" type="curve" smooth="yes"/>
      <point x="215" y="477"/>
      <point x="115" y="458"/>
      <point x="70" y="448" type="curve"/>
      <point x="54" y="290" type="line"/>
      <point x="103" y="308"/>
      <point x="191" y="339"/>
      <point x="201" y="339" type="curve"/>
      <point x="233" y="337"/>
      <point x="247" y="326"/>
      <point x="242" y="308" type="curve" smooth="yes"/>
      <point x="237" y="290"/>
      <point x="217" y="283"/>
      <point x="184" y="281" type="curve"/>
      <point x="163" y="283"/>
      <point x="140" y="285"/>
      <point x="119" y="287" type="curve"/>
      <point x="96" y="175" type="line"/>
      <point x="119" y="177"/>
      <point x="145" y="179"/>
      <point x="168" y="181" type="curve"/>
      <point x="206" y="179"/>
      <point x="223" y="171"/>
      <point x="217" y="149" type="curve" smooth="yes"/>
      <point x="212" y="132"/>
      <point x="195" y="125"/>
      <point x="163" y="123" type="curve"/>
      <point x="153" y="123"/>
      <point x="64" y="151"/>
      <point x="15" y="167" type="curve"/>
      <point x="-25" y="19" type="line"/>
      <point x="26" y="9"/>
      <point x="139" y="-15"/>
    </contour>
  </outline>
</glyph>
<glyph name="tildecomb.narrow" format="2">
  <anchor x="353" y="502" name="_top"/>
  <anchor x="404" y="747" name="top"/>
  <outline>
    <contour>
      <point x="453" y="539" type="curve" smooth="yes"/>
      <point x="518" y="539"/>
      <point x="574" y="610"/>
      <point x="598" y="737" type="curve"/>
      <point x="493" y="737" type="line"/>
      <point x="482" y="717"/>
      <point x="464" y="693"/>
      <point x="455" y="690" type="curve"/>
      <point x="441" y="694"/>
      <point x="389" y="758"/>
      <point x="324" y="758" type="curve" smooth="yes"/>
      <point x="253" y="758"/>
      <point x="194" y="687"/>
      <point x="170" y="560" type="curve"/>
      <point x="274" y="560" type="line"/>
      <point x="285" y="578"/>
      <point x="306" y="604"/>
      <point x="317" y="607" type="curve"/>
      <point x="336" y="603"/>
      <point x="381" y="539"/>
    </contour>
  </outline>
</glyph>
<glyph name="two.dnom" format="2">
  <advance width="436"/>
  <outline>
    <contour>
      <point x="-24" y="0" type="line"/>
      <point x="354" y="0" type="line"/>
      <point x="387" y="162" type="line"/>
      <point x="339" y="157"/>
      <point x="283" y="151"/>
      <point x="234" y="146" type="curve"/>
      <point x="171" y="146" type="line"/>
      <point x="186" y="106" type="line"/>
      <point x="257" y="144" type="line"/>
      <point x="360" y="198"/>
      <point x="406" y="237"/>
      <point x="421" y="307" type="curve" smooth="yes"/>
      <point x="442" y="407"/>
      <point x="368" y="477"/>
      <point x="238" y="477" type="curve" smooth="yes"/>
      <point x="211" y="477"/>
      <point x="112" y="456"/>
      <point x="67" y="446" type="curve"/>
      <point x="50" y="283" type="line"/>
      <point x="98" y="302"/>
      <point x="186" y="334"/>
      <point x="196" y="334" type="curve"/>
      <point x="234" y="332"/>
      <point x="245" y="322"/>
      <point x="239" y="298" type="curve" smooth="yes"/>
      <point x="228" y="256"/>
      <point x="173" y="220"/>
      <point x="78" y="160" type="curve"/>
      <point x="53" y="147"/>
      <point x="25" y="132"/>
      <point x="0" y="119" type="curve"/>
    </contour>
  </outline>
</glyph>
